<?xml version="1.0" encoding="UTF-8" standalone="no"?>
<svg width="736px" height="298px" viewBox="0 0 736 298" version="1.1" xmlns="http://www.w3.org/2000/svg" xmlns:xlink="http://www.w3.org/1999/xlink">
    <!-- Generator: Sketch 3.7.2 (28276) - http://www.bohemiancoding.com/sketch -->
    <title>modules_hierarchy</title>
    <desc>Created with Sketch.</desc>
    <defs>
        <path d="M2,0 C0.896,0 0,0.895 0,2 L0,30 C0,31.105 0.896,32 2,32 L102,32 C103.104,32 104,31.105 104,30 L104,2 C104,0.895 103.104,0 102,0 L2,0 L2,0 Z M0,0 L104,0 L104,32 L0,32 L0,0 L0,0 Z" id="path-1"></path>
        <rect id="path-3" x="0" y="0" width="129" height="32" rx="2"></rect>
        <mask id="mask-4" maskContentUnits="userSpaceOnUse" maskUnits="objectBoundingBox" x="0" y="0" width="129" height="32" fill="white">
            <use xlink:href="#path-3"></use>
        </mask>
    </defs>
    <g id="Page-1" stroke="none" stroke-width="1" fill="none" fill-rule="evenodd">
        <g id="modules_hierarchy">
            <g id="Group-3" transform="translate(346.000000, 21.000000)">
                <mask id="mask-2" fill="white">
                    <use xlink:href="#path-1"></use>
                </mask>
                <g id="Clip-2"></g>
                <path d="M2,0 C0.896,0 0,0.895 0,2 L0,2 L0,30 C0,31.105 0.896,32 2,32 L2,32 L102,32 C103.104,32 104,31.105 104,30 L104,30 L104,2 C104,0.895 103.104,0 102,0 L102,0 L2,0 Z" id="Fill-1" mask="url(#mask-2)"></path>
            </g>
            <text id="Application" font-family="Roboto-Bold, Roboto" font-size="14" font-weight="bold" letter-spacing="-0.3304" fill="#FFFFFF">
                <tspan x="362.3574" y="37.68455">A</tspan>
                <tspan x="371.118797" y="37.68455">pplication</tspan>
            </text>
            <g id="Group-2" transform="translate(180.000000, 98.000000)">
                <path d="M102,32 L2,32 C0.895,32 0,31.105 0,30 L0,2 C0,0.895 0.895,0 2,0 L102,0 C103.105,0 104,0.895 104,2 L104,30 C104,31.105 103.105,32 102,32" id="Fill-4" fill="#29B6F6"></path>
                <path d="M34.1411063,16.8818156 C33.1762577,16.6044705 32.4741163,16.2636536 32.0346609,15.8593547 C31.5952056,15.4550558 31.3754813,14.9560373 31.3754813,14.3622844 C31.3754813,13.690406 31.6440333,13.1347475 32.1811453,12.6952922 C32.7182574,12.2558369 33.4164926,12.0361125 34.2758719,12.0361125 C34.8618123,12.0361125 35.384268,12.1493926 35.8432547,12.3759563 C36.3022414,12.6025199 36.6577066,12.9150168 36.9096609,13.3134563 C37.1616153,13.7118957 37.2875906,14.1474383 37.2875906,14.6200969 L36.1567313,14.6200969 C36.1567313,14.1044693 35.9926704,13.6991999 35.6645438,13.4042766 C35.3364171,13.1093532 34.8735311,12.9618938 34.2758719,12.9618938 C33.7211816,12.9618938 33.2885687,13.0839628 32.9780203,13.3281047 C32.6674719,13.5722465 32.5122,13.9111103 32.5122,14.3447063 C32.5122,14.6923642 32.6596595,14.9863066 32.9545828,15.2265422 C33.2495062,15.4667778 33.7514543,15.6865021 34.4604422,15.8857219 C35.1694301,16.0849416 35.7241121,16.304666 36.1245047,16.5449016 C36.5248973,16.7851371 36.8217693,17.0654078 37.0151297,17.3857219 C37.20849,17.706036 37.3051688,18.0829853 37.3051688,18.5165813 C37.3051688,19.207991 37.0356402,19.7616964 36.496575,20.1777141 C35.9575098,20.5937318 35.2368139,20.8017375 34.3344656,20.8017375 C33.7485252,20.8017375 33.2016557,20.6894339 32.6938406,20.4648234 C32.1860256,20.2402129 31.7944279,19.9325988 31.5190359,19.5419719 C31.2436439,19.1513449 31.10595,18.70799 31.10595,18.2118938 L32.2368094,18.2118938 C32.2368094,18.7275213 32.4272372,19.1347438 32.8080984,19.4335734 C33.1889597,19.7324031 33.6977437,19.8818156 34.3344656,19.8818156 C34.9282186,19.8818156 35.3832922,19.7607231 35.6997,19.5185344 C36.0161078,19.2763457 36.1743094,18.9462708 36.1743094,18.5283 C36.1743094,18.1103292 36.0278265,17.7870902 35.7348563,17.5585734 C35.441886,17.3300567 34.9106413,17.104473 34.1411063,16.8818156 L34.1411063,16.8818156 Z M41.2075125,20.8017375 C40.3481332,20.8017375 39.6489214,20.5195138 39.1098563,19.9550578 C38.5707911,19.3906019 38.3012625,18.6357266 38.3012625,17.6904094 L38.3012625,17.4911906 C38.3012625,16.8622812 38.4213785,16.3007634 38.6616141,15.8066203 C38.9018496,15.3124772 39.2377838,14.9257623 39.6694266,14.6464641 C40.1010693,14.3671658 40.5688381,14.2275188 41.0727469,14.2275188 C41.8969697,14.2275188 42.5375883,14.4990004 42.9946219,15.0419719 C43.4516554,15.5849433 43.6801688,16.3622793 43.6801688,17.3740031 L43.6801688,17.825175 L39.3852469,17.825175 C39.400872,18.4501781 39.5834873,18.9550559 39.9330984,19.3398234 C40.2827096,19.724591 40.7270411,19.9169719 41.2661063,19.9169719 C41.6489207,19.9169719 41.9731362,19.8388477 42.2387625,19.6825969 C42.5043888,19.5263461 42.7368084,19.3193169 42.9360281,19.0615031 L43.5981375,19.5771281 C43.0668848,20.3935385 42.2700178,20.8017375 41.2075125,20.8017375 L41.2075125,20.8017375 Z M41.0727469,15.1181438 C40.6352447,15.1181438 40.2680609,15.2773218 39.9711844,15.5956828 C39.6743079,15.9140438 39.490716,16.3603284 39.4204031,16.93455 L42.5961844,16.93455 L42.5961844,16.8525188 C42.5649342,16.3017347 42.4164982,15.8749812 42.1508719,15.5722453 C41.8852455,15.2695094 41.5258741,15.1181438 41.0727469,15.1181438 L41.0727469,15.1181438 Z M47.9985281,15.3173625 C47.8344648,15.2900186 47.6567322,15.2763469 47.465325,15.2763469 C46.7543839,15.2763469 46.2719669,15.5790782 46.0180594,16.18455 L46.0180594,20.68455 L44.934075,20.68455 L44.934075,14.3447063 L45.9887625,14.3447063 L46.0063406,15.0771281 C46.3618112,14.510719 46.8657124,14.2275188 47.5180594,14.2275188 C47.7289979,14.2275188 47.8891526,14.2548622 47.9985281,14.30955 L47.9985281,15.3173625 Z M51.1918875,19.2138469 L52.7622,14.3447063 L53.8696219,14.3447063 L51.5961844,20.68455 L50.7700125,20.68455 L48.4731375,14.3447063 L49.5805594,14.3447063 L51.1918875,19.2138469 Z M56.090325,20.68455 L55.0063406,20.68455 L55.0063406,14.3447063 L56.090325,14.3447063 L56.090325,20.68455 Z M54.91845,12.6630656 C54.91845,12.4872835 54.9721604,12.3388475 55.0795828,12.2177531 C55.1870052,12.0966588 55.3461833,12.0361125 55.5571219,12.0361125 C55.7680604,12.0361125 55.9282151,12.0966588 56.0375906,12.2177531 C56.1469662,12.3388475 56.2016531,12.4872835 56.2016531,12.6630656 C56.2016531,12.8388478 56.1469662,12.9853307 56.0375906,13.1025188 C55.9282151,13.2197068 55.7680604,13.2783 55.5571219,13.2783 C55.3461833,13.2783 55.1870052,13.2197068 55.0795828,13.1025188 C54.9721604,12.9853307 54.91845,12.8388478 54.91845,12.6630656 L54.91845,12.6630656 Z M60.3676688,19.9169719 C60.7543894,19.9169719 61.0922767,19.7997855 61.3813406,19.5654094 C61.6704046,19.3310332 61.8305592,19.0380674 61.8618094,18.6865031 L62.8872,18.6865031 C62.8676687,19.0497862 62.7426699,19.3954859 62.5122,19.7236125 C62.2817301,20.0517391 61.974116,20.3134553 61.5893484,20.5087688 C61.2045809,20.7040822 60.7973584,20.8017375 60.3676688,20.8017375 C59.5043832,20.8017375 58.8178666,20.5136544 58.3080984,19.9374797 C57.7983303,19.3613049 57.54345,18.5732269 57.54345,17.5732219 L57.54345,17.3915813 C57.54345,16.7743907 57.6567301,16.225568 57.8832938,15.7450969 C58.1098574,15.2646257 58.4350494,14.8915826 58.8588797,14.6259563 C59.2827099,14.3603299 59.7836815,14.2275188 60.3618094,14.2275188 C61.0727504,14.2275188 61.6635648,14.4404072 62.1342703,14.8661906 C62.6049758,15.291974 62.8559498,15.8447029 62.8872,16.5243938 L61.8618094,16.5243938 C61.8305592,16.1142354 61.6752873,15.7773248 61.3959891,15.5136516 C61.1166908,15.2499784 60.7719677,15.1181438 60.3618094,15.1181438 C59.8110254,15.1181438 59.3842718,15.316384 59.0815359,15.7128703 C58.7788,16.1093567 58.6274344,16.6825931 58.6274344,17.4325969 L58.6274344,17.637675 C58.6274344,18.3681474 58.7778235,18.9306418 59.0786063,19.325175 C59.379389,19.7197082 59.8090722,19.9169719 60.3676688,19.9169719 L60.3676688,19.9169719 Z M66.7368094,20.8017375 C65.8774301,20.8017375 65.1782183,20.5195138 64.6391531,19.9550578 C64.1000879,19.3906019 63.8305594,18.6357266 63.8305594,17.6904094 L63.8305594,17.4911906 C63.8305594,16.8622812 63.9506754,16.3007634 64.1909109,15.8066203 C64.4311465,15.3124772 64.7670807,14.9257623 65.1987234,14.6464641 C65.6303662,14.3671658 66.098135,14.2275188 66.6020438,14.2275188 C67.4262666,14.2275188 68.0668852,14.4990004 68.5239188,15.0419719 C68.9809523,15.5849433 69.2094656,16.3622793 69.2094656,17.3740031 L69.2094656,17.825175 L64.9145438,17.825175 C64.9301688,18.4501781 65.1127842,18.9550559 65.4623953,19.3398234 C65.8120064,19.724591 66.2563379,19.9169719 66.7954031,19.9169719 C67.1782175,19.9169719 67.502433,19.8388477 67.7680594,19.6825969 C68.0336857,19.5263461 68.2661053,19.3193169 68.465325,19.0615031 L69.1274344,19.5771281 C68.5961817,20.3935385 67.7993147,20.8017375 66.7368094,20.8017375 L66.7368094,20.8017375 Z M66.6020438,15.1181438 C66.1645416,15.1181438 65.7973577,15.2773218 65.5004813,15.5956828 C65.2036048,15.9140438 65.0200129,16.3603284 64.9497,16.93455 L68.1254813,16.93455 L68.1254813,16.8525188 C68.0942311,16.3017347 67.9457951,15.8749812 67.6801688,15.5722453 C67.4145424,15.2695094 67.055171,15.1181438 66.6020438,15.1181438 L66.6020438,15.1181438 Z" id="Service" fill="#FFFFFF"></path>
            </g>
            <path d="M218,197 L118,197 C116.895,197 116,196.105 116,195 L116,167 C116,165.895 116.895,165 118,165 L218,165 C219.105,165 220,165.895 220,167 L220,195 C220,196.105 219.105,197 218,197" id="Fill-6" fill="#81D4FA"></path>
            <path d="M152.271453,183.190409 L154.708953,176.1533 L155.939422,176.1533 L152.775359,184.68455 L151.779266,184.68455 L148.621063,176.1533 L149.845672,176.1533 L152.271453,183.190409 Z M159.030725,184.801738 C158.171346,184.801738 157.472134,184.519514 156.933069,183.955058 C156.394004,183.390602 156.124475,182.635727 156.124475,181.690409 L156.124475,181.491191 C156.124475,180.862281 156.244591,180.300763 156.484827,179.80662 C156.725062,179.312477 157.060996,178.925762 157.492639,178.646464 C157.924282,178.367166 158.392051,178.227519 158.895959,178.227519 C159.720182,178.227519 160.360801,178.499 160.817834,179.041972 C161.274868,179.584943 161.503381,180.362279 161.503381,181.374003 L161.503381,181.825175 L157.208459,181.825175 C157.224084,182.450178 157.4067,182.955056 157.756311,183.339823 C158.105922,183.724591 158.550254,183.916972 159.089319,183.916972 C159.472133,183.916972 159.796349,183.838848 160.061975,183.682597 C160.327601,183.526346 160.560021,183.319317 160.759241,183.061503 L161.42135,183.577128 C160.890097,184.393538 160.09323,184.801738 159.030725,184.801738 L159.030725,184.801738 Z M158.895959,179.118144 C158.458457,179.118144 158.091273,179.277322 157.794397,179.595683 C157.49752,179.914044 157.313928,180.360328 157.243616,180.93455 L160.419397,180.93455 L160.419397,180.852519 C160.388147,180.301735 160.239711,179.874981 159.974084,179.572245 C159.708458,179.269509 159.349087,179.118144 158.895959,179.118144 L158.895959,179.118144 Z M165.603684,179.317363 C165.43962,179.290019 165.261888,179.276347 165.07048,179.276347 C164.359539,179.276347 163.877122,179.579078 163.623215,180.18455 L163.623215,184.68455 L162.53923,184.68455 L162.53923,178.344706 L163.593918,178.344706 L163.611496,179.077128 C163.966967,178.510719 164.470868,178.227519 165.123215,178.227519 C165.334153,178.227519 165.494308,178.254862 165.603684,178.30955 L165.603684,179.317363 Z M170.073126,183.002909 C170.073126,182.709939 169.962776,182.482402 169.742072,182.320292 C169.521367,182.158182 169.136606,182.018535 168.587775,181.901347 C168.038944,181.784159 167.603401,181.643535 167.281134,181.479472 C166.958867,181.315409 166.720588,181.120098 166.56629,180.893534 C166.411993,180.666971 166.334845,180.397442 166.334845,180.084941 C166.334845,179.565407 166.55457,179.125958 166.994025,178.766581 C167.43348,178.407204 167.994998,178.227519 168.678595,178.227519 C169.397349,178.227519 169.980351,178.413064 170.427619,178.784159 C170.874886,179.155255 171.098517,179.62986 171.098517,180.207988 L170.008673,180.207988 C170.008673,179.911111 169.882698,179.655254 169.630744,179.440409 C169.378789,179.225565 169.06141,179.118144 168.678595,179.118144 C168.284062,179.118144 167.975471,179.20408 167.752814,179.375956 C167.530157,179.547832 167.41883,179.772439 167.41883,180.049784 C167.41883,180.311504 167.522344,180.508768 167.729376,180.641581 C167.936409,180.774394 168.310428,180.901346 168.851447,181.022441 C169.392465,181.143535 169.830937,181.288065 170.166876,181.456034 C170.502816,181.624004 170.751837,181.82615 170.913947,182.06248 C171.076057,182.298809 171.157111,182.586892 171.157111,182.926738 C171.157111,183.493147 170.930551,183.947244 170.477423,184.289042 C170.024296,184.630841 169.436411,184.801738 168.713751,184.801738 C168.205936,184.801738 167.756722,184.711895 167.366095,184.532206 C166.975468,184.352518 166.669807,184.101544 166.449103,183.779277 C166.228399,183.457009 166.118048,183.10838 166.118048,182.733378 L167.202033,182.733378 C167.221564,183.096661 167.36707,183.384744 167.638556,183.597636 C167.910042,183.810528 168.268437,183.916972 168.713751,183.916972 C169.12391,183.916972 169.453008,183.833965 169.701056,183.667948 C169.949104,183.501932 170.073126,183.280255 170.073126,183.002909 L170.073126,183.002909 Z M173.528897,184.68455 L172.444913,184.68455 L172.444913,178.344706 L173.528897,178.344706 L173.528897,184.68455 Z M172.357022,176.663066 C172.357022,176.487283 172.410733,176.338847 172.518155,176.217753 C172.625578,176.096659 172.784756,176.036113 172.995694,176.036113 C173.206633,176.036113 173.366787,176.096659 173.476163,176.217753 C173.585539,176.338847 173.640226,176.487283 173.640226,176.663066 C173.640226,176.838848 173.585539,176.985331 173.476163,177.102519 C173.366787,177.219707 173.206633,177.2783 172.995694,177.2783 C172.784756,177.2783 172.625578,177.219707 172.518155,177.102519 C172.410733,176.985331 172.357022,176.838848 172.357022,176.663066 L172.357022,176.663066 Z M174.758106,181.456034 C174.758106,180.834938 174.880175,180.276349 175.124317,179.780253 C175.368459,179.284157 175.708299,178.901348 176.143848,178.631816 C176.579397,178.362283 177.076462,178.227519 177.635059,178.227519 C178.498345,178.227519 179.19658,178.526344 179.729786,179.124003 C180.262991,179.721662 180.52959,180.516576 180.52959,181.508769 L180.52959,181.584941 C180.52959,182.202131 180.411427,182.755837 180.175098,183.246073 C179.938769,183.73631 179.600882,184.118142 179.161426,184.391581 C178.721971,184.66502 178.217093,184.801738 177.646778,184.801738 C176.787398,184.801738 176.091116,184.502912 175.557911,183.905253 C175.024705,183.307594 174.758106,182.516586 174.758106,181.532206 L174.758106,181.456034 Z M175.84795,181.584941 C175.84795,182.288069 176.011034,182.852517 176.337207,183.2783 C176.663381,183.704083 177.0999,183.916972 177.646778,183.916972 C178.197562,183.916972 178.635057,183.701154 178.959278,183.269511 C179.283498,182.837868 179.445606,182.233382 179.445606,181.456034 C179.445606,180.760718 179.280568,180.197247 178.950489,179.765605 C178.620409,179.333962 178.181937,179.118144 177.635059,179.118144 C177.0999,179.118144 176.668264,179.331032 176.340137,179.756816 C176.01201,180.182599 175.84795,180.791968 175.84795,181.584941 L175.84795,181.584941 Z M182.696299,178.344706 L182.731455,179.141581 C183.215832,178.532203 183.848639,178.227519 184.629893,178.227519 C185.969743,178.227519 186.645517,178.983371 186.657236,180.495097 L186.657236,184.68455 L185.573252,184.68455 L185.573252,180.489238 C185.569346,180.032204 185.464854,179.694317 185.259775,179.475566 C185.054696,179.256815 184.735363,179.147441 184.301768,179.147441 C183.950203,179.147441 183.641613,179.24119 183.375986,179.428691 C183.11036,179.616192 182.903331,179.862283 182.754893,180.166972 L182.754893,184.68455 L181.670908,184.68455 L181.670908,178.344706 L182.696299,178.344706 Z" id="Version" fill="#000000"></path>
            <path d="M346,197 L246,197 C244.895,197 244,196.105 244,195 L244,167 C244,165.895 244.895,165 246,165 L346,165 C347.105,165 348,165.895 348,167 L348,195 C348,196.105 347.105,197 346,197" id="Fill-8" fill="#81D4FA"></path>
            <path d="M280.271453,183.190409 L282.708953,176.1533 L283.939422,176.1533 L280.775359,184.68455 L279.779266,184.68455 L276.621063,176.1533 L277.845672,176.1533 L280.271453,183.190409 Z M287.030725,184.801738 C286.171346,184.801738 285.472134,184.519514 284.933069,183.955058 C284.394004,183.390602 284.124475,182.635727 284.124475,181.690409 L284.124475,181.491191 C284.124475,180.862281 284.244591,180.300763 284.484827,179.80662 C284.725062,179.312477 285.060996,178.925762 285.492639,178.646464 C285.924282,178.367166 286.392051,178.227519 286.895959,178.227519 C287.720182,178.227519 288.360801,178.499 288.817834,179.041972 C289.274868,179.584943 289.503381,180.362279 289.503381,181.374003 L289.503381,181.825175 L285.208459,181.825175 C285.224084,182.450178 285.4067,182.955056 285.756311,183.339823 C286.105922,183.724591 286.550254,183.916972 287.089319,183.916972 C287.472133,183.916972 287.796349,183.838848 288.061975,183.682597 C288.327601,183.526346 288.560021,183.319317 288.759241,183.061503 L289.42135,183.577128 C288.890097,184.393538 288.09323,184.801738 287.030725,184.801738 L287.030725,184.801738 Z M286.895959,179.118144 C286.458457,179.118144 286.091273,179.277322 285.794397,179.595683 C285.49752,179.914044 285.313928,180.360328 285.243616,180.93455 L288.419397,180.93455 L288.419397,180.852519 C288.388147,180.301735 288.239711,179.874981 287.974084,179.572245 C287.708458,179.269509 287.349087,179.118144 286.895959,179.118144 L286.895959,179.118144 Z M293.603684,179.317363 C293.43962,179.290019 293.261888,179.276347 293.07048,179.276347 C292.359539,179.276347 291.877122,179.579078 291.623215,180.18455 L291.623215,184.68455 L290.53923,184.68455 L290.53923,178.344706 L291.593918,178.344706 L291.611496,179.077128 C291.966967,178.510719 292.470868,178.227519 293.123215,178.227519 C293.334153,178.227519 293.494308,178.254862 293.603684,178.30955 L293.603684,179.317363 Z M298.073126,183.002909 C298.073126,182.709939 297.962776,182.482402 297.742072,182.320292 C297.521367,182.158182 297.136606,182.018535 296.587775,181.901347 C296.038944,181.784159 295.603401,181.643535 295.281134,181.479472 C294.958867,181.315409 294.720588,181.120098 294.56629,180.893534 C294.411993,180.666971 294.334845,180.397442 294.334845,180.084941 C294.334845,179.565407 294.55457,179.125958 294.994025,178.766581 C295.43348,178.407204 295.994998,178.227519 296.678595,178.227519 C297.397349,178.227519 297.980351,178.413064 298.427619,178.784159 C298.874886,179.155255 299.098517,179.62986 299.098517,180.207988 L298.008673,180.207988 C298.008673,179.911111 297.882698,179.655254 297.630744,179.440409 C297.378789,179.225565 297.06141,179.118144 296.678595,179.118144 C296.284062,179.118144 295.975471,179.20408 295.752814,179.375956 C295.530157,179.547832 295.41883,179.772439 295.41883,180.049784 C295.41883,180.311504 295.522344,180.508768 295.729376,180.641581 C295.936409,180.774394 296.310428,180.901346 296.851447,181.022441 C297.392465,181.143535 297.830937,181.288065 298.166876,181.456034 C298.502816,181.624004 298.751837,181.82615 298.913947,182.06248 C299.076057,182.298809 299.157111,182.586892 299.157111,182.926738 C299.157111,183.493147 298.930551,183.947244 298.477423,184.289042 C298.024296,184.630841 297.436411,184.801738 296.713751,184.801738 C296.205936,184.801738 295.756722,184.711895 295.366095,184.532206 C294.975468,184.352518 294.669807,184.101544 294.449103,183.779277 C294.228399,183.457009 294.118048,183.10838 294.118048,182.733378 L295.202033,182.733378 C295.221564,183.096661 295.36707,183.384744 295.638556,183.597636 C295.910042,183.810528 296.268437,183.916972 296.713751,183.916972 C297.12391,183.916972 297.453008,183.833965 297.701056,183.667948 C297.949104,183.501932 298.073126,183.280255 298.073126,183.002909 L298.073126,183.002909 Z M301.528897,184.68455 L300.444913,184.68455 L300.444913,178.344706 L301.528897,178.344706 L301.528897,184.68455 Z M300.357022,176.663066 C300.357022,176.487283 300.410733,176.338847 300.518155,176.217753 C300.625578,176.096659 300.784756,176.036113 300.995694,176.036113 C301.206633,176.036113 301.366787,176.096659 301.476163,176.217753 C301.585539,176.338847 301.640226,176.487283 301.640226,176.663066 C301.640226,176.838848 301.585539,176.985331 301.476163,177.102519 C301.366787,177.219707 301.206633,177.2783 300.995694,177.2783 C300.784756,177.2783 300.625578,177.219707 300.518155,177.102519 C300.410733,176.985331 300.357022,176.838848 300.357022,176.663066 L300.357022,176.663066 Z M302.758106,181.456034 C302.758106,180.834938 302.880175,180.276349 303.124317,179.780253 C303.368459,179.284157 303.708299,178.901348 304.143848,178.631816 C304.579397,178.362283 305.076462,178.227519 305.635059,178.227519 C306.498345,178.227519 307.19658,178.526344 307.729786,179.124003 C308.262991,179.721662 308.52959,180.516576 308.52959,181.508769 L308.52959,181.584941 C308.52959,182.202131 308.411427,182.755837 308.175098,183.246073 C307.938769,183.73631 307.600882,184.118142 307.161426,184.391581 C306.721971,184.66502 306.217093,184.801738 305.646778,184.801738 C304.787398,184.801738 304.091116,184.502912 303.557911,183.905253 C303.024705,183.307594 302.758106,182.516586 302.758106,181.532206 L302.758106,181.456034 Z M303.84795,181.584941 C303.84795,182.288069 304.011034,182.852517 304.337207,183.2783 C304.663381,183.704083 305.0999,183.916972 305.646778,183.916972 C306.197562,183.916972 306.635057,183.701154 306.959278,183.269511 C307.283498,182.837868 307.445606,182.233382 307.445606,181.456034 C307.445606,180.760718 307.280568,180.197247 306.950489,179.765605 C306.620409,179.333962 306.181937,179.118144 305.635059,179.118144 C305.0999,179.118144 304.668264,179.331032 304.340137,179.756816 C304.01201,180.182599 303.84795,180.791968 303.84795,181.584941 L303.84795,181.584941 Z M310.696299,178.344706 L310.731455,179.141581 C311.215832,178.532203 311.848639,178.227519 312.629893,178.227519 C313.969743,178.227519 314.645517,178.983371 314.657236,180.495097 L314.657236,184.68455 L313.573252,184.68455 L313.573252,180.489238 C313.569346,180.032204 313.464854,179.694317 313.259775,179.475566 C313.054696,179.256815 312.735363,179.147441 312.301768,179.147441 C311.950203,179.147441 311.641613,179.24119 311.375986,179.428691 C311.11036,179.616192 310.903331,179.862283 310.754893,180.166972 L310.754893,184.68455 L309.670908,184.68455 L309.670908,178.344706 L310.696299,178.344706 Z" id="Version" fill="#000000"></path>
            <g id="module" transform="translate(511.000000, 98.000000)">
                <path d="M102,32 L2,32 C0.895,32 0,31.105 0,30 L0,2 C0,0.895 0.895,0 2,0 L102,0 C103.105,0 104,0.895 104,2 L104,30 C104,31.105 103.105,32 102,32" id="Fill-10" fill="#29B6F6"></path>
                <path d="M34.6157062,16.8818156 C33.6508577,16.6044705 32.9487163,16.2636536 32.5092609,15.8593547 C32.0698056,15.4550558 31.8500812,14.9560373 31.8500812,14.3622844 C31.8500812,13.690406 32.1186333,13.1347475 32.6557453,12.6952922 C33.1928574,12.2558369 33.8910926,12.0361125 34.7504719,12.0361125 C35.3364123,12.0361125 35.858868,12.1493926 36.3178547,12.3759563 C36.7768414,12.6025199 37.1323066,12.9150168 37.3842609,13.3134563 C37.6362153,13.7118957 37.7621906,14.1474383 37.7621906,14.6200969 L36.6313312,14.6200969 C36.6313312,14.1044693 36.4672704,13.6991999 36.1391437,13.4042766 C35.8110171,13.1093532 35.3481311,12.9618938 34.7504719,12.9618938 C34.1957816,12.9618938 33.7631687,13.0839628 33.4526203,13.3281047 C33.1420719,13.5722465 32.9868,13.9111103 32.9868,14.3447063 C32.9868,14.6923642 33.1342595,14.9863066 33.4291828,15.2265422 C33.7241062,15.4667778 34.2260543,15.6865021 34.9350422,15.8857219 C35.6440301,16.0849416 36.1987121,16.304666 36.5991047,16.5449016 C36.9994973,16.7851371 37.2963693,17.0654078 37.4897297,17.3857219 C37.68309,17.706036 37.7797687,18.0829853 37.7797687,18.5165813 C37.7797687,19.207991 37.5102402,19.7616964 36.971175,20.1777141 C36.4321098,20.5937318 35.7114139,20.8017375 34.8090656,20.8017375 C34.2231252,20.8017375 33.6762557,20.6894339 33.1684406,20.4648234 C32.6606256,20.2402129 32.2690279,19.9325988 31.9936359,19.5419719 C31.7182439,19.1513449 31.58055,18.70799 31.58055,18.2118938 L32.7114094,18.2118938 C32.7114094,18.7275213 32.9018372,19.1347438 33.2826984,19.4335734 C33.6635597,19.7324031 34.1723437,19.8818156 34.8090656,19.8818156 C35.4028186,19.8818156 35.8578922,19.7607231 36.1743,19.5185344 C36.4907078,19.2763457 36.6489094,18.9462708 36.6489094,18.5283 C36.6489094,18.1103292 36.5024265,17.7870902 36.2094562,17.5585734 C35.916486,17.3300567 35.3852413,17.104473 34.6157062,16.8818156 L34.6157062,16.8818156 Z M41.6821125,20.8017375 C40.8227332,20.8017375 40.1235214,20.5195138 39.5844562,19.9550578 C39.0453911,19.3906019 38.7758625,18.6357266 38.7758625,17.6904094 L38.7758625,17.4911906 C38.7758625,16.8622812 38.8959785,16.3007634 39.1362141,15.8066203 C39.3764496,15.3124772 39.7123838,14.9257623 40.1440266,14.6464641 C40.5756693,14.3671658 41.0434381,14.2275188 41.5473469,14.2275188 C42.3715697,14.2275188 43.0121883,14.4990004 43.4692219,15.0419719 C43.9262554,15.5849433 44.1547687,16.3622793 44.1547687,17.3740031 L44.1547687,17.825175 L39.8598469,17.825175 C39.875472,18.4501781 40.0580873,18.9550559 40.4076984,19.3398234 C40.7573096,19.724591 41.2016411,19.9169719 41.7407062,19.9169719 C42.1235207,19.9169719 42.4477362,19.8388477 42.7133625,19.6825969 C42.9789888,19.5263461 43.2114084,19.3193169 43.4106281,19.0615031 L44.0727375,19.5771281 C43.5414848,20.3935385 42.7446178,20.8017375 41.6821125,20.8017375 L41.6821125,20.8017375 Z M41.5473469,15.1181438 C41.1098447,15.1181438 40.7426609,15.2773218 40.4457844,15.5956828 C40.1489079,15.9140438 39.965316,16.3603284 39.8950031,16.93455 L43.0707844,16.93455 L43.0707844,16.8525188 C43.0395342,16.3017347 42.8910982,15.8749812 42.6254719,15.5722453 C42.3598455,15.2695094 42.0004741,15.1181438 41.5473469,15.1181438 L41.5473469,15.1181438 Z M48.4731281,15.3173625 C48.3090648,15.2900186 48.1313322,15.2763469 47.939925,15.2763469 C47.2289839,15.2763469 46.7465669,15.5790782 46.4926594,16.18455 L46.4926594,20.68455 L45.408675,20.68455 L45.408675,14.3447063 L46.4633625,14.3447063 L46.4809406,15.0771281 C46.8364112,14.510719 47.3403124,14.2275188 47.9926594,14.2275188 C48.2035979,14.2275188 48.3637526,14.2548622 48.4731281,14.30955 L48.4731281,15.3173625 Z M51.6664875,19.2138469 L53.2368,14.3447063 L54.3442219,14.3447063 L52.0707844,20.68455 L51.2446125,20.68455 L48.9477375,14.3447063 L50.0551594,14.3447063 L51.6664875,19.2138469 Z M56.564925,20.68455 L55.4809406,20.68455 L55.4809406,14.3447063 L56.564925,14.3447063 L56.564925,20.68455 Z M55.39305,12.6630656 C55.39305,12.4872835 55.4467604,12.3388475 55.5541828,12.2177531 C55.6616052,12.0966588 55.8207833,12.0361125 56.0317219,12.0361125 C56.2426604,12.0361125 56.4028151,12.0966588 56.5121906,12.2177531 C56.6215662,12.3388475 56.6762531,12.4872835 56.6762531,12.6630656 C56.6762531,12.8388478 56.6215662,12.9853307 56.5121906,13.1025188 C56.4028151,13.2197068 56.2426604,13.2783 56.0317219,13.2783 C55.8207833,13.2783 55.6616052,13.2197068 55.5541828,13.1025188 C55.4467604,12.9853307 55.39305,12.8388478 55.39305,12.6630656 L55.39305,12.6630656 Z M60.8422687,19.9169719 C61.2289894,19.9169719 61.5668767,19.7997855 61.8559406,19.5654094 C62.1450046,19.3310332 62.3051592,19.0380674 62.3364094,18.6865031 L63.3618,18.6865031 C63.3422687,19.0497862 63.2172699,19.3954859 62.9868,19.7236125 C62.7563301,20.0517391 62.448716,20.3134553 62.0639484,20.5087688 C61.6791809,20.7040822 61.2719584,20.8017375 60.8422687,20.8017375 C59.9789832,20.8017375 59.2924666,20.5136544 58.7826984,19.9374797 C58.2729303,19.3613049 58.01805,18.5732269 58.01805,17.5732219 L58.01805,17.3915813 C58.01805,16.7743907 58.1313301,16.225568 58.3578937,15.7450969 C58.5844574,15.2646257 58.9096494,14.8915826 59.3334797,14.6259563 C59.7573099,14.3603299 60.2582815,14.2275188 60.8364094,14.2275188 C61.5473504,14.2275188 62.1381648,14.4404072 62.6088703,14.8661906 C63.0795758,15.291974 63.3305498,15.8447029 63.3618,16.5243938 L62.3364094,16.5243938 C62.3051592,16.1142354 62.1498873,15.7773248 61.8705891,15.5136516 C61.5912908,15.2499784 61.2465677,15.1181438 60.8364094,15.1181438 C60.2856254,15.1181438 59.8588718,15.316384 59.5561359,15.7128703 C59.2534,16.1093567 59.1020344,16.6825931 59.1020344,17.4325969 L59.1020344,17.637675 C59.1020344,18.3681474 59.2524235,18.9306418 59.5532062,19.325175 C59.853989,19.7197082 60.2836722,19.9169719 60.8422687,19.9169719 L60.8422687,19.9169719 Z M67.2114094,20.8017375 C66.3520301,20.8017375 65.6528183,20.5195138 65.1137531,19.9550578 C64.5746879,19.3906019 64.3051594,18.6357266 64.3051594,17.6904094 L64.3051594,17.4911906 C64.3051594,16.8622812 64.4252754,16.3007634 64.6655109,15.8066203 C64.9057465,15.3124772 65.2416807,14.9257623 65.6733234,14.6464641 C66.1049662,14.3671658 66.572735,14.2275188 67.0766437,14.2275188 C67.9008666,14.2275188 68.5414852,14.4990004 68.9985187,15.0419719 C69.4555523,15.5849433 69.6840656,16.3622793 69.6840656,17.3740031 L69.6840656,17.825175 L65.3891437,17.825175 C65.4047688,18.4501781 65.5873842,18.9550559 65.9369953,19.3398234 C66.2866064,19.724591 66.7309379,19.9169719 67.2700031,19.9169719 C67.6528175,19.9169719 67.977033,19.8388477 68.2426594,19.6825969 C68.5082857,19.5263461 68.7407053,19.3193169 68.939925,19.0615031 L69.6020344,19.5771281 C69.0707817,20.3935385 68.2739147,20.8017375 67.2114094,20.8017375 L67.2114094,20.8017375 Z M67.0766437,15.1181438 C66.6391416,15.1181438 66.2719577,15.2773218 65.9750812,15.5956828 C65.6782048,15.9140438 65.4946129,16.3603284 65.4243,16.93455 L68.6000812,16.93455 L68.6000812,16.8525188 C68.5688311,16.3017347 68.4203951,15.8749812 68.1547687,15.5722453 C67.8891424,15.2695094 67.529771,15.1181438 67.0766437,15.1181438 L67.0766437,15.1181438 Z" id="Service" fill="#FFFFFF"></path>
            </g>
            <path d="M232,130 L232,146" id="Stroke-12" stroke="#616161"></path>
            <path d="M396,63 L396,79" id="Stroke-14" stroke="#616161"></path>
            <path d="M563,130 L563,146" id="Stroke-16" stroke="#616161"></path>
            <polyline id="Stroke-18" stroke="#616161" points="168 161.1324 168 146.0004 296 146.0004 296 161.1324"></polyline>
            <polygon id="Fill-20" fill="#616161" points="171.2719 158.4816 170.6859 157.9356 168.0009 160.8256 165.3149 157.9356 164.7289 158.4816 168.0009 161.9996"></polygon>
            <polygon id="Fill-22" fill="#616161" points="292.7281 158.4816 293.3141 157.9356 295.9991 160.8256 298.6851 157.9356 299.2711 158.4816 295.9991 161.9996"></polygon>
            <polyline id="Stroke-24" stroke="#616161" points="499 161.1324 499 146.0004 627 146.0004 627 161.1324"></polyline>
            <polygon id="Fill-26" fill="#616161" points="502.2719 158.4816 501.6859 157.9356 499.0009 160.8256 496.3149 157.9356 495.7289 158.4816 499.0009 161.9996"></polygon>
            <polygon id="Fill-28" fill="#616161" points="623.7281 158.4816 624.3141 157.9356 626.9991 160.8256 629.6851 157.9356 630.2711 158.4816 626.9991 161.9996"></polygon>
            <polyline id="Stroke-30" stroke="#616161" points="435 228.1324 435 213.0004 563 213.0004 563 228.1324"></polyline>
            <polygon id="Fill-32" fill="#616161" points="438.2719 225.4816 437.6859 224.9356 435.0009 227.8256 432.3149 224.9356 431.7289 225.4816 435.0009 228.9996"></polygon>
            <polygon id="Fill-34" fill="#616161" points="559.7281 225.4816 560.3141 224.9356 562.9991 227.8256 565.6851 224.9356 566.2711 225.4816 562.9991 228.9996"></polygon>
            <polyline id="Stroke-36" stroke="#616161" points="104 228.1324 104 213.0004 232 213.0004 232 228.1324"></polyline>
            <polygon id="Fill-38" fill="#616161" points="107.2719 225.4816 106.6859 224.9356 104.0009 227.8256 101.3149 224.9356 100.7289 225.4816 104.0009 228.9996"></polygon>
            <polygon id="Fill-40" fill="#616161" points="228.7281 225.4816 229.3141 224.9356 231.9991 227.8256 234.6851 224.9356 235.2711 225.4816 231.9991 228.9996"></polygon>
            <path d="M154,265 L54,265 C52.895,265 52,264.105 52,263 L52,235 C52,233.895 52.895,233 54,233 L154,233 C155.105,233 156,233.895 156,235 L156,263 C156,264.105 155.105,265 154,265" id="Fill-42" fill="#E1F6FE"></path>
            <path d="M83.4926656,252.68455 L82.3676656,252.68455 L82.3676656,244.1533 L83.4926656,244.1533 L83.4926656,252.68455 Z M86.404775,246.344706 L86.4399312,247.141581 C86.9243087,246.532203 87.5571148,246.227519 88.3383687,246.227519 C89.6782192,246.227519 90.3539937,246.983371 90.3657125,248.495097 L90.3657125,252.68455 L89.2817281,252.68455 L89.2817281,248.489238 C89.2778219,248.032204 89.1733307,247.694317 88.9682516,247.475566 C88.7631724,247.256815 88.4438397,247.147441 88.0102437,247.147441 C87.6586795,247.147441 87.3500888,247.24119 87.0844625,247.428691 C86.8188362,247.616192 86.611807,247.862283 86.4633687,248.166972 L86.4633687,252.68455 L85.3793844,252.68455 L85.3793844,246.344706 L86.404775,246.344706 Z M95.6918844,251.002909 C95.6918844,250.709939 95.5815339,250.482402 95.3608297,250.320292 C95.1401255,250.158182 94.7553637,250.018535 94.2065328,249.901347 C93.6577019,249.784159 93.2221594,249.643535 92.8998922,249.479472 C92.577625,249.315409 92.3393461,249.120098 92.1850484,248.893534 C92.0307508,248.666971 91.9536031,248.397442 91.9536031,248.084941 C91.9536031,247.565407 92.1733275,247.125958 92.6127828,246.766581 C93.0522381,246.407204 93.613756,246.227519 94.2973531,246.227519 C95.0161067,246.227519 95.5991087,246.413064 96.0463766,246.784159 C96.4936444,247.155255 96.717275,247.62986 96.717275,248.207988 L95.6274312,248.207988 C95.6274312,247.911111 95.5014559,247.655254 95.2495016,247.440409 C94.9975472,247.225565 94.6801675,247.118144 94.2973531,247.118144 C93.9028199,247.118144 93.5942292,247.20408 93.3715719,247.375956 C93.1489145,247.547832 93.0375875,247.772439 93.0375875,248.049784 C93.0375875,248.311504 93.1411021,248.508768 93.3481344,248.641581 C93.5551667,248.774394 93.9291864,248.901346 94.4702047,249.022441 C95.011223,249.143535 95.4496952,249.288065 95.7856344,249.456034 C96.1215736,249.624004 96.3705945,249.82615 96.5327047,250.06248 C96.6948149,250.298809 96.7758687,250.586892 96.7758687,250.926738 C96.7758687,251.493147 96.5493085,251.947244 96.0961812,252.289042 C95.643054,252.630841 95.0551692,252.801738 94.3325094,252.801738 C93.8246943,252.801738 93.3754801,252.711895 92.9848531,252.532206 C92.5942262,252.352518 92.2885652,252.101544 92.0678609,251.779277 C91.8471567,251.457009 91.7368062,251.10838 91.7368062,250.733378 L92.8207906,250.733378 C92.840322,251.096661 92.9858283,251.384744 93.2573141,251.597636 C93.5287998,251.810528 93.8871946,251.916972 94.3325094,251.916972 C94.7426677,251.916972 95.0717659,251.833965 95.3198141,251.667948 C95.5678622,251.501932 95.6918844,251.280255 95.6918844,251.002909 L95.6918844,251.002909 Z M99.6586812,244.80955 L99.6586812,246.344706 L100.842275,246.344706 L100.842275,247.182597 L99.6586812,247.182597 L99.6586812,251.114238 C99.6586812,251.368145 99.7114151,251.558573 99.8168844,251.685527 C99.9223537,251.81248 100.102039,251.875956 100.355947,251.875956 C100.480947,251.875956 100.652821,251.852519 100.871572,251.805644 L100.871572,252.68455 C100.586414,252.762675 100.309073,252.801738 100.039541,252.801738 C99.5551632,252.801738 99.1899325,252.655255 98.9438375,252.362284 C98.6977425,252.069314 98.5746969,251.653303 98.5746969,251.114238 L98.5746969,247.182597 L97.4204,247.182597 L97.4204,246.344706 L98.5746969,246.344706 L98.5746969,244.80955 L99.6586812,244.80955 Z M106.021962,252.68455 C105.959462,252.559549 105.908681,252.336895 105.869619,252.016581 C105.36571,252.540021 104.764153,252.801738 104.064931,252.801738 C103.439928,252.801738 102.927238,252.624981 102.526845,252.271464 C102.126453,251.917947 101.926259,251.469709 101.926259,250.926738 C101.926259,250.266578 102.177233,249.753888 102.679189,249.388652 C103.181145,249.023415 103.887192,248.8408 104.797353,248.8408 L105.852041,248.8408 L105.852041,248.342753 C105.852041,247.963845 105.738761,247.66209 105.512197,247.43748 C105.285633,247.212869 104.951652,247.100566 104.510244,247.100566 C104.123523,247.100566 103.799308,247.198221 103.537587,247.393534 C103.275867,247.588848 103.145009,247.825174 103.145009,248.102519 L102.055166,248.102519 C102.055166,247.786111 102.167469,247.48045 102.39208,247.185527 C102.61669,246.890603 102.921375,246.657207 103.306142,246.485331 C103.69091,246.313455 104.113757,246.227519 104.574697,246.227519 C105.305169,246.227519 105.877429,246.410134 106.291494,246.77537 C106.705558,247.140607 106.9204,247.643531 106.936025,248.284159 L106.936025,251.202128 C106.936025,251.784162 107.010243,252.247048 107.158681,252.5908 L107.158681,252.68455 L106.021962,252.68455 Z M104.223134,251.858378 C104.56298,251.858378 104.885242,251.770488 105.189931,251.594706 C105.49462,251.418924 105.715321,251.190411 105.852041,250.909159 L105.852041,249.608378 L105.002431,249.608378 C103.6743,249.608378 103.010244,249.997046 103.010244,250.774394 C103.010244,251.114239 103.123524,251.379862 103.350087,251.571269 C103.576651,251.762676 103.867664,251.858378 104.223134,251.858378 L104.223134,251.858378 Z M109.660634,246.344706 L109.695791,247.141581 C110.180168,246.532203 110.812974,246.227519 111.594228,246.227519 C112.934079,246.227519 113.609853,246.983371 113.621572,248.495097 L113.621572,252.68455 L112.537587,252.68455 L112.537587,248.489238 C112.533681,248.032204 112.42919,247.694317 112.224111,247.475566 C112.019032,247.256815 111.699699,247.147441 111.266103,247.147441 C110.914539,247.147441 110.605948,247.24119 110.340322,247.428691 C110.074696,247.616192 109.867666,247.862283 109.719228,248.166972 L109.719228,252.68455 L108.635244,252.68455 L108.635244,246.344706 L109.660634,246.344706 Z M117.799306,251.916972 C118.186027,251.916972 118.523914,251.799786 118.812978,251.565409 C119.102042,251.331033 119.262197,251.038067 119.293447,250.686503 L120.318837,250.686503 C120.299306,251.049786 120.174307,251.395486 119.943837,251.723613 C119.713368,252.051739 119.405753,252.313455 119.020986,252.508769 C118.636218,252.704082 118.228996,252.801738 117.799306,252.801738 C116.936021,252.801738 116.249504,252.513654 115.739736,251.93748 C115.229968,251.361305 114.975087,250.573227 114.975087,249.573222 L114.975087,249.391581 C114.975087,248.774391 115.088368,248.225568 115.314931,247.745097 C115.541495,247.264626 115.866687,246.891583 116.290517,246.625956 C116.714347,246.36033 117.215319,246.227519 117.793447,246.227519 C118.504388,246.227519 119.095202,246.440407 119.565908,246.866191 C120.036613,247.291974 120.287587,247.844703 120.318837,248.524394 L119.293447,248.524394 C119.262197,248.114235 119.106925,247.777325 118.827627,247.513652 C118.548328,247.249978 118.203605,247.118144 117.793447,247.118144 C117.242663,247.118144 116.815909,247.316384 116.513173,247.71287 C116.210438,248.109357 116.059072,248.682593 116.059072,249.432597 L116.059072,249.637675 C116.059072,250.368147 116.209461,250.930642 116.510244,251.325175 C116.811027,251.719708 117.24071,251.916972 117.799306,251.916972 L117.799306,251.916972 Z M124.168447,252.801738 C123.309068,252.801738 122.609856,252.519514 122.070791,251.955058 C121.531725,251.390602 121.262197,250.635727 121.262197,249.690409 L121.262197,249.491191 C121.262197,248.862281 121.382313,248.300763 121.622548,247.80662 C121.862784,247.312477 122.198718,246.925762 122.630361,246.646464 C123.062004,246.367166 123.529772,246.227519 124.033681,246.227519 C124.857904,246.227519 125.498523,246.499 125.955556,247.041972 C126.41259,247.584943 126.641103,248.362279 126.641103,249.374003 L126.641103,249.825175 L122.346181,249.825175 C122.361806,250.450178 122.544422,250.955056 122.894033,251.339823 C123.243644,251.724591 123.687975,251.916972 124.227041,251.916972 C124.609855,251.916972 124.934071,251.838848 125.199697,251.682597 C125.465323,251.526346 125.697743,251.319317 125.896962,251.061503 L126.559072,251.577128 C126.027819,252.393538 125.230952,252.801738 124.168447,252.801738 L124.168447,252.801738 Z M124.033681,247.118144 C123.596179,247.118144 123.228995,247.277322 122.932119,247.595683 C122.635242,247.914044 122.45165,248.360328 122.381337,248.93455 L125.557119,248.93455 L125.557119,248.852519 C125.525869,248.301735 125.377433,247.874981 125.111806,247.572245 C124.84618,247.269509 124.486809,247.118144 124.033681,247.118144 L124.033681,247.118144 Z" id="Instance" fill="#000000"></path>
            <path d="M282,265 L182,265 C180.895,265 180,264.105 180,263 L180,235 C180,233.895 180.895,233 182,233 L282,233 C283.105,233 284,233.895 284,235 L284,263 C284,264.105 283.105,265 282,265" id="Fill-45" fill="#E1F6FE"></path>
            <path d="M211.492666,252.68455 L210.367666,252.68455 L210.367666,244.1533 L211.492666,244.1533 L211.492666,252.68455 Z M214.404775,246.344706 L214.439931,247.141581 C214.924309,246.532203 215.557115,246.227519 216.338369,246.227519 C217.678219,246.227519 218.353994,246.983371 218.365712,248.495097 L218.365712,252.68455 L217.281728,252.68455 L217.281728,248.489238 C217.277822,248.032204 217.173331,247.694317 216.968252,247.475566 C216.763172,247.256815 216.44384,247.147441 216.010244,247.147441 C215.658679,247.147441 215.350089,247.24119 215.084462,247.428691 C214.818836,247.616192 214.611807,247.862283 214.463369,248.166972 L214.463369,252.68455 L213.379384,252.68455 L213.379384,246.344706 L214.404775,246.344706 Z M223.691884,251.002909 C223.691884,250.709939 223.581534,250.482402 223.36083,250.320292 C223.140125,250.158182 222.755364,250.018535 222.206533,249.901347 C221.657702,249.784159 221.222159,249.643535 220.899892,249.479472 C220.577625,249.315409 220.339346,249.120098 220.185048,248.893534 C220.030751,248.666971 219.953603,248.397442 219.953603,248.084941 C219.953603,247.565407 220.173327,247.125958 220.612783,246.766581 C221.052238,246.407204 221.613756,246.227519 222.297353,246.227519 C223.016107,246.227519 223.599109,246.413064 224.046377,246.784159 C224.493644,247.155255 224.717275,247.62986 224.717275,248.207988 L223.627431,248.207988 C223.627431,247.911111 223.501456,247.655254 223.249502,247.440409 C222.997547,247.225565 222.680168,247.118144 222.297353,247.118144 C221.90282,247.118144 221.594229,247.20408 221.371572,247.375956 C221.148915,247.547832 221.037587,247.772439 221.037587,248.049784 C221.037587,248.311504 221.141102,248.508768 221.348134,248.641581 C221.555167,248.774394 221.929186,248.901346 222.470205,249.022441 C223.011223,249.143535 223.449695,249.288065 223.785634,249.456034 C224.121574,249.624004 224.370595,249.82615 224.532705,250.06248 C224.694815,250.298809 224.775869,250.586892 224.775869,250.926738 C224.775869,251.493147 224.549309,251.947244 224.096181,252.289042 C223.643054,252.630841 223.055169,252.801738 222.332509,252.801738 C221.824694,252.801738 221.37548,252.711895 220.984853,252.532206 C220.594226,252.352518 220.288565,252.101544 220.067861,251.779277 C219.847157,251.457009 219.736806,251.10838 219.736806,250.733378 L220.820791,250.733378 C220.840322,251.096661 220.985828,251.384744 221.257314,251.597636 C221.5288,251.810528 221.887195,251.916972 222.332509,251.916972 C222.742668,251.916972 223.071766,251.833965 223.319814,251.667948 C223.567862,251.501932 223.691884,251.280255 223.691884,251.002909 L223.691884,251.002909 Z M227.658681,244.80955 L227.658681,246.344706 L228.842275,246.344706 L228.842275,247.182597 L227.658681,247.182597 L227.658681,251.114238 C227.658681,251.368145 227.711415,251.558573 227.816884,251.685527 C227.922354,251.81248 228.102039,251.875956 228.355947,251.875956 C228.480947,251.875956 228.652821,251.852519 228.871572,251.805644 L228.871572,252.68455 C228.586414,252.762675 228.309073,252.801738 228.039541,252.801738 C227.555163,252.801738 227.189932,252.655255 226.943837,252.362284 C226.697743,252.069314 226.574697,251.653303 226.574697,251.114238 L226.574697,247.182597 L225.4204,247.182597 L225.4204,246.344706 L226.574697,246.344706 L226.574697,244.80955 L227.658681,244.80955 Z M234.021962,252.68455 C233.959462,252.559549 233.908681,252.336895 233.869619,252.016581 C233.36571,252.540021 232.764153,252.801738 232.064931,252.801738 C231.439928,252.801738 230.927238,252.624981 230.526845,252.271464 C230.126453,251.917947 229.926259,251.469709 229.926259,250.926738 C229.926259,250.266578 230.177233,249.753888 230.679189,249.388652 C231.181145,249.023415 231.887192,248.8408 232.797353,248.8408 L233.852041,248.8408 L233.852041,248.342753 C233.852041,247.963845 233.738761,247.66209 233.512197,247.43748 C233.285633,247.212869 232.951652,247.100566 232.510244,247.100566 C232.123523,247.100566 231.799308,247.198221 231.537587,247.393534 C231.275867,247.588848 231.145009,247.825174 231.145009,248.102519 L230.055166,248.102519 C230.055166,247.786111 230.167469,247.48045 230.39208,247.185527 C230.61669,246.890603 230.921375,246.657207 231.306142,246.485331 C231.69091,246.313455 232.113757,246.227519 232.574697,246.227519 C233.305169,246.227519 233.877429,246.410134 234.291494,246.77537 C234.705558,247.140607 234.9204,247.643531 234.936025,248.284159 L234.936025,251.202128 C234.936025,251.784162 235.010243,252.247048 235.158681,252.5908 L235.158681,252.68455 L234.021962,252.68455 Z M232.223134,251.858378 C232.56298,251.858378 232.885242,251.770488 233.189931,251.594706 C233.49462,251.418924 233.715321,251.190411 233.852041,250.909159 L233.852041,249.608378 L233.002431,249.608378 C231.6743,249.608378 231.010244,249.997046 231.010244,250.774394 C231.010244,251.114239 231.123524,251.379862 231.350087,251.571269 C231.576651,251.762676 231.867664,251.858378 232.223134,251.858378 L232.223134,251.858378 Z M237.660634,246.344706 L237.695791,247.141581 C238.180168,246.532203 238.812974,246.227519 239.594228,246.227519 C240.934079,246.227519 241.609853,246.983371 241.621572,248.495097 L241.621572,252.68455 L240.537587,252.68455 L240.537587,248.489238 C240.533681,248.032204 240.42919,247.694317 240.224111,247.475566 C240.019032,247.256815 239.699699,247.147441 239.266103,247.147441 C238.914539,247.147441 238.605948,247.24119 238.340322,247.428691 C238.074696,247.616192 237.867666,247.862283 237.719228,248.166972 L237.719228,252.68455 L236.635244,252.68455 L236.635244,246.344706 L237.660634,246.344706 Z M245.799306,251.916972 C246.186027,251.916972 246.523914,251.799786 246.812978,251.565409 C247.102042,251.331033 247.262197,251.038067 247.293447,250.686503 L248.318837,250.686503 C248.299306,251.049786 248.174307,251.395486 247.943837,251.723613 C247.713368,252.051739 247.405753,252.313455 247.020986,252.508769 C246.636218,252.704082 246.228996,252.801738 245.799306,252.801738 C244.936021,252.801738 244.249504,252.513654 243.739736,251.93748 C243.229968,251.361305 242.975087,250.573227 242.975087,249.573222 L242.975087,249.391581 C242.975087,248.774391 243.088368,248.225568 243.314931,247.745097 C243.541495,247.264626 243.866687,246.891583 244.290517,246.625956 C244.714347,246.36033 245.215319,246.227519 245.793447,246.227519 C246.504388,246.227519 247.095202,246.440407 247.565908,246.866191 C248.036613,247.291974 248.287587,247.844703 248.318837,248.524394 L247.293447,248.524394 C247.262197,248.114235 247.106925,247.777325 246.827627,247.513652 C246.548328,247.249978 246.203605,247.118144 245.793447,247.118144 C245.242663,247.118144 244.815909,247.316384 244.513173,247.71287 C244.210438,248.109357 244.059072,248.682593 244.059072,249.432597 L244.059072,249.637675 C244.059072,250.368147 244.209461,250.930642 244.510244,251.325175 C244.811027,251.719708 245.24071,251.916972 245.799306,251.916972 L245.799306,251.916972 Z M252.168447,252.801738 C251.309068,252.801738 250.609856,252.519514 250.070791,251.955058 C249.531725,251.390602 249.262197,250.635727 249.262197,249.690409 L249.262197,249.491191 C249.262197,248.862281 249.382313,248.300763 249.622548,247.80662 C249.862784,247.312477 250.198718,246.925762 250.630361,246.646464 C251.062004,246.367166 251.529772,246.227519 252.033681,246.227519 C252.857904,246.227519 253.498523,246.499 253.955556,247.041972 C254.41259,247.584943 254.641103,248.362279 254.641103,249.374003 L254.641103,249.825175 L250.346181,249.825175 C250.361806,250.450178 250.544422,250.955056 250.894033,251.339823 C251.243644,251.724591 251.687975,251.916972 252.227041,251.916972 C252.609855,251.916972 252.934071,251.838848 253.199697,251.682597 C253.465323,251.526346 253.697743,251.319317 253.896962,251.061503 L254.559072,251.577128 C254.027819,252.393538 253.230952,252.801738 252.168447,252.801738 L252.168447,252.801738 Z M252.033681,247.118144 C251.596179,247.118144 251.228995,247.277322 250.932119,247.595683 C250.635242,247.914044 250.45165,248.360328 250.381337,248.93455 L253.557119,248.93455 L253.557119,248.852519 C253.525869,248.301735 253.377433,247.874981 253.111806,247.572245 C252.84618,247.269509 252.486809,247.118144 252.033681,247.118144 L252.033681,247.118144 Z" id="Instance" fill="#000000"></path>
            <path d="M168,197 L168,213" id="Stroke-47" stroke="#616161"></path>
            <path d="M485,265 L385,265 C383.895,265 383,264.105 383,263 L383,235 C383,233.895 383.895,233 385,233 L485,233 C486.105,233 487,233.895 487,235 L487,263 C487,264.105 486.105,265 485,265" id="Fill-49" fill="#E1F6FE"></path>
            <path d="M414.492666,252.68455 L413.367666,252.68455 L413.367666,244.1533 L414.492666,244.1533 L414.492666,252.68455 Z M417.404775,246.344706 L417.439931,247.141581 C417.924309,246.532203 418.557115,246.227519 419.338369,246.227519 C420.678219,246.227519 421.353994,246.983371 421.365712,248.495097 L421.365712,252.68455 L420.281728,252.68455 L420.281728,248.489238 C420.277822,248.032204 420.173331,247.694317 419.968252,247.475566 C419.763172,247.256815 419.44384,247.147441 419.010244,247.147441 C418.658679,247.147441 418.350089,247.24119 418.084462,247.428691 C417.818836,247.616192 417.611807,247.862283 417.463369,248.166972 L417.463369,252.68455 L416.379384,252.68455 L416.379384,246.344706 L417.404775,246.344706 Z M426.691884,251.002909 C426.691884,250.709939 426.581534,250.482402 426.36083,250.320292 C426.140125,250.158182 425.755364,250.018535 425.206533,249.901347 C424.657702,249.784159 424.222159,249.643535 423.899892,249.479472 C423.577625,249.315409 423.339346,249.120098 423.185048,248.893534 C423.030751,248.666971 422.953603,248.397442 422.953603,248.084941 C422.953603,247.565407 423.173327,247.125958 423.612783,246.766581 C424.052238,246.407204 424.613756,246.227519 425.297353,246.227519 C426.016107,246.227519 426.599109,246.413064 427.046377,246.784159 C427.493644,247.155255 427.717275,247.62986 427.717275,248.207988 L426.627431,248.207988 C426.627431,247.911111 426.501456,247.655254 426.249502,247.440409 C425.997547,247.225565 425.680168,247.118144 425.297353,247.118144 C424.90282,247.118144 424.594229,247.20408 424.371572,247.375956 C424.148915,247.547832 424.037587,247.772439 424.037587,248.049784 C424.037587,248.311504 424.141102,248.508768 424.348134,248.641581 C424.555167,248.774394 424.929186,248.901346 425.470205,249.022441 C426.011223,249.143535 426.449695,249.288065 426.785634,249.456034 C427.121574,249.624004 427.370595,249.82615 427.532705,250.06248 C427.694815,250.298809 427.775869,250.586892 427.775869,250.926738 C427.775869,251.493147 427.549309,251.947244 427.096181,252.289042 C426.643054,252.630841 426.055169,252.801738 425.332509,252.801738 C424.824694,252.801738 424.37548,252.711895 423.984853,252.532206 C423.594226,252.352518 423.288565,252.101544 423.067861,251.779277 C422.847157,251.457009 422.736806,251.10838 422.736806,250.733378 L423.820791,250.733378 C423.840322,251.096661 423.985828,251.384744 424.257314,251.597636 C424.5288,251.810528 424.887195,251.916972 425.332509,251.916972 C425.742668,251.916972 426.071766,251.833965 426.319814,251.667948 C426.567862,251.501932 426.691884,251.280255 426.691884,251.002909 L426.691884,251.002909 Z M430.658681,244.80955 L430.658681,246.344706 L431.842275,246.344706 L431.842275,247.182597 L430.658681,247.182597 L430.658681,251.114238 C430.658681,251.368145 430.711415,251.558573 430.816884,251.685527 C430.922354,251.81248 431.102039,251.875956 431.355947,251.875956 C431.480947,251.875956 431.652821,251.852519 431.871572,251.805644 L431.871572,252.68455 C431.586414,252.762675 431.309073,252.801738 431.039541,252.801738 C430.555163,252.801738 430.189932,252.655255 429.943837,252.362284 C429.697743,252.069314 429.574697,251.653303 429.574697,251.114238 L429.574697,247.182597 L428.4204,247.182597 L428.4204,246.344706 L429.574697,246.344706 L429.574697,244.80955 L430.658681,244.80955 Z M437.021962,252.68455 C436.959462,252.559549 436.908681,252.336895 436.869619,252.016581 C436.36571,252.540021 435.764153,252.801738 435.064931,252.801738 C434.439928,252.801738 433.927238,252.624981 433.526845,252.271464 C433.126453,251.917947 432.926259,251.469709 432.926259,250.926738 C432.926259,250.266578 433.177233,249.753888 433.679189,249.388652 C434.181145,249.023415 434.887192,248.8408 435.797353,248.8408 L436.852041,248.8408 L436.852041,248.342753 C436.852041,247.963845 436.738761,247.66209 436.512197,247.43748 C436.285633,247.212869 435.951652,247.100566 435.510244,247.100566 C435.123523,247.100566 434.799308,247.198221 434.537587,247.393534 C434.275867,247.588848 434.145009,247.825174 434.145009,248.102519 L433.055166,248.102519 C433.055166,247.786111 433.167469,247.48045 433.39208,247.185527 C433.61669,246.890603 433.921375,246.657207 434.306142,246.485331 C434.69091,246.313455 435.113757,246.227519 435.574697,246.227519 C436.305169,246.227519 436.877429,246.410134 437.291494,246.77537 C437.705558,247.140607 437.9204,247.643531 437.936025,248.284159 L437.936025,251.202128 C437.936025,251.784162 438.010243,252.247048 438.158681,252.5908 L438.158681,252.68455 L437.021962,252.68455 Z M435.223134,251.858378 C435.56298,251.858378 435.885242,251.770488 436.189931,251.594706 C436.49462,251.418924 436.715321,251.190411 436.852041,250.909159 L436.852041,249.608378 L436.002431,249.608378 C434.6743,249.608378 434.010244,249.997046 434.010244,250.774394 C434.010244,251.114239 434.123524,251.379862 434.350087,251.571269 C434.576651,251.762676 434.867664,251.858378 435.223134,251.858378 L435.223134,251.858378 Z M440.660634,246.344706 L440.695791,247.141581 C441.180168,246.532203 441.812974,246.227519 442.594228,246.227519 C443.934079,246.227519 444.609853,246.983371 444.621572,248.495097 L444.621572,252.68455 L443.537587,252.68455 L443.537587,248.489238 C443.533681,248.032204 443.42919,247.694317 443.224111,247.475566 C443.019032,247.256815 442.699699,247.147441 442.266103,247.147441 C441.914539,247.147441 441.605948,247.24119 441.340322,247.428691 C441.074696,247.616192 440.867666,247.862283 440.719228,248.166972 L440.719228,252.68455 L439.635244,252.68455 L439.635244,246.344706 L440.660634,246.344706 Z M448.799306,251.916972 C449.186027,251.916972 449.523914,251.799786 449.812978,251.565409 C450.102042,251.331033 450.262197,251.038067 450.293447,250.686503 L451.318837,250.686503 C451.299306,251.049786 451.174307,251.395486 450.943837,251.723613 C450.713368,252.051739 450.405753,252.313455 450.020986,252.508769 C449.636218,252.704082 449.228996,252.801738 448.799306,252.801738 C447.936021,252.801738 447.249504,252.513654 446.739736,251.93748 C446.229968,251.361305 445.975087,250.573227 445.975087,249.573222 L445.975087,249.391581 C445.975087,248.774391 446.088368,248.225568 446.314931,247.745097 C446.541495,247.264626 446.866687,246.891583 447.290517,246.625956 C447.714347,246.36033 448.215319,246.227519 448.793447,246.227519 C449.504388,246.227519 450.095202,246.440407 450.565908,246.866191 C451.036613,247.291974 451.287587,247.844703 451.318837,248.524394 L450.293447,248.524394 C450.262197,248.114235 450.106925,247.777325 449.827627,247.513652 C449.548328,247.249978 449.203605,247.118144 448.793447,247.118144 C448.242663,247.118144 447.815909,247.316384 447.513173,247.71287 C447.210438,248.109357 447.059072,248.682593 447.059072,249.432597 L447.059072,249.637675 C447.059072,250.368147 447.209461,250.930642 447.510244,251.325175 C447.811027,251.719708 448.24071,251.916972 448.799306,251.916972 L448.799306,251.916972 Z M455.168447,252.801738 C454.309068,252.801738 453.609856,252.519514 453.070791,251.955058 C452.531725,251.390602 452.262197,250.635727 452.262197,249.690409 L452.262197,249.491191 C452.262197,248.862281 452.382313,248.300763 452.622548,247.80662 C452.862784,247.312477 453.198718,246.925762 453.630361,246.646464 C454.062004,246.367166 454.529772,246.227519 455.033681,246.227519 C455.857904,246.227519 456.498523,246.499 456.955556,247.041972 C457.41259,247.584943 457.641103,248.362279 457.641103,249.374003 L457.641103,249.825175 L453.346181,249.825175 C453.361806,250.450178 453.544422,250.955056 453.894033,251.339823 C454.243644,251.724591 454.687975,251.916972 455.227041,251.916972 C455.609855,251.916972 455.934071,251.838848 456.199697,251.682597 C456.465323,251.526346 456.697743,251.319317 456.896962,251.061503 L457.559072,251.577128 C457.027819,252.393538 456.230952,252.801738 455.168447,252.801738 L455.168447,252.801738 Z M455.033681,247.118144 C454.596179,247.118144 454.228995,247.277322 453.932119,247.595683 C453.635242,247.914044 453.45165,248.360328 453.381337,248.93455 L456.557119,248.93455 L456.557119,248.852519 C456.525869,248.301735 456.377433,247.874981 456.111806,247.572245 C455.84618,247.269509 455.486809,247.118144 455.033681,247.118144 L455.033681,247.118144 Z" id="Instance" fill="#000000"></path>
            <path d="M613,265 L513,265 C511.895,265 511,264.105 511,263 L511,235 C511,233.895 511.895,233 513,233 L613,233 C614.105,233 615,233.895 615,235 L615,263 C615,264.105 614.105,265 613,265" id="Fill-52" fill="#E1F6FE"></path>
            <path d="M542.492666,252.68455 L541.367666,252.68455 L541.367666,244.1533 L542.492666,244.1533 L542.492666,252.68455 Z M545.404775,246.344706 L545.439931,247.141581 C545.924309,246.532203 546.557115,246.227519 547.338369,246.227519 C548.678219,246.227519 549.353994,246.983371 549.365712,248.495097 L549.365712,252.68455 L548.281728,252.68455 L548.281728,248.489238 C548.277822,248.032204 548.173331,247.694317 547.968252,247.475566 C547.763172,247.256815 547.44384,247.147441 547.010244,247.147441 C546.658679,247.147441 546.350089,247.24119 546.084462,247.428691 C545.818836,247.616192 545.611807,247.862283 545.463369,248.166972 L545.463369,252.68455 L544.379384,252.68455 L544.379384,246.344706 L545.404775,246.344706 Z M554.691884,251.002909 C554.691884,250.709939 554.581534,250.482402 554.36083,250.320292 C554.140125,250.158182 553.755364,250.018535 553.206533,249.901347 C552.657702,249.784159 552.222159,249.643535 551.899892,249.479472 C551.577625,249.315409 551.339346,249.120098 551.185048,248.893534 C551.030751,248.666971 550.953603,248.397442 550.953603,248.084941 C550.953603,247.565407 551.173327,247.125958 551.612783,246.766581 C552.052238,246.407204 552.613756,246.227519 553.297353,246.227519 C554.016107,246.227519 554.599109,246.413064 555.046377,246.784159 C555.493644,247.155255 555.717275,247.62986 555.717275,248.207988 L554.627431,248.207988 C554.627431,247.911111 554.501456,247.655254 554.249502,247.440409 C553.997547,247.225565 553.680168,247.118144 553.297353,247.118144 C552.90282,247.118144 552.594229,247.20408 552.371572,247.375956 C552.148915,247.547832 552.037587,247.772439 552.037587,248.049784 C552.037587,248.311504 552.141102,248.508768 552.348134,248.641581 C552.555167,248.774394 552.929186,248.901346 553.470205,249.022441 C554.011223,249.143535 554.449695,249.288065 554.785634,249.456034 C555.121574,249.624004 555.370595,249.82615 555.532705,250.06248 C555.694815,250.298809 555.775869,250.586892 555.775869,250.926738 C555.775869,251.493147 555.549309,251.947244 555.096181,252.289042 C554.643054,252.630841 554.055169,252.801738 553.332509,252.801738 C552.824694,252.801738 552.37548,252.711895 551.984853,252.532206 C551.594226,252.352518 551.288565,252.101544 551.067861,251.779277 C550.847157,251.457009 550.736806,251.10838 550.736806,250.733378 L551.820791,250.733378 C551.840322,251.096661 551.985828,251.384744 552.257314,251.597636 C552.5288,251.810528 552.887195,251.916972 553.332509,251.916972 C553.742668,251.916972 554.071766,251.833965 554.319814,251.667948 C554.567862,251.501932 554.691884,251.280255 554.691884,251.002909 L554.691884,251.002909 Z M558.658681,244.80955 L558.658681,246.344706 L559.842275,246.344706 L559.842275,247.182597 L558.658681,247.182597 L558.658681,251.114238 C558.658681,251.368145 558.711415,251.558573 558.816884,251.685527 C558.922354,251.81248 559.102039,251.875956 559.355947,251.875956 C559.480947,251.875956 559.652821,251.852519 559.871572,251.805644 L559.871572,252.68455 C559.586414,252.762675 559.309073,252.801738 559.039541,252.801738 C558.555163,252.801738 558.189932,252.655255 557.943837,252.362284 C557.697743,252.069314 557.574697,251.653303 557.574697,251.114238 L557.574697,247.182597 L556.4204,247.182597 L556.4204,246.344706 L557.574697,246.344706 L557.574697,244.80955 L558.658681,244.80955 Z M565.021962,252.68455 C564.959462,252.559549 564.908681,252.336895 564.869619,252.016581 C564.36571,252.540021 563.764153,252.801738 563.064931,252.801738 C562.439928,252.801738 561.927238,252.624981 561.526845,252.271464 C561.126453,251.917947 560.926259,251.469709 560.926259,250.926738 C560.926259,250.266578 561.177233,249.753888 561.679189,249.388652 C562.181145,249.023415 562.887192,248.8408 563.797353,248.8408 L564.852041,248.8408 L564.852041,248.342753 C564.852041,247.963845 564.738761,247.66209 564.512197,247.43748 C564.285633,247.212869 563.951652,247.100566 563.510244,247.100566 C563.123523,247.100566 562.799308,247.198221 562.537587,247.393534 C562.275867,247.588848 562.145009,247.825174 562.145009,248.102519 L561.055166,248.102519 C561.055166,247.786111 561.167469,247.48045 561.39208,247.185527 C561.61669,246.890603 561.921375,246.657207 562.306142,246.485331 C562.69091,246.313455 563.113757,246.227519 563.574697,246.227519 C564.305169,246.227519 564.877429,246.410134 565.291494,246.77537 C565.705558,247.140607 565.9204,247.643531 565.936025,248.284159 L565.936025,251.202128 C565.936025,251.784162 566.010243,252.247048 566.158681,252.5908 L566.158681,252.68455 L565.021962,252.68455 Z M563.223134,251.858378 C563.56298,251.858378 563.885242,251.770488 564.189931,251.594706 C564.49462,251.418924 564.715321,251.190411 564.852041,250.909159 L564.852041,249.608378 L564.002431,249.608378 C562.6743,249.608378 562.010244,249.997046 562.010244,250.774394 C562.010244,251.114239 562.123524,251.379862 562.350087,251.571269 C562.576651,251.762676 562.867664,251.858378 563.223134,251.858378 L563.223134,251.858378 Z M568.660634,246.344706 L568.695791,247.141581 C569.180168,246.532203 569.812974,246.227519 570.594228,246.227519 C571.934079,246.227519 572.609853,246.983371 572.621572,248.495097 L572.621572,252.68455 L571.537587,252.68455 L571.537587,248.489238 C571.533681,248.032204 571.42919,247.694317 571.224111,247.475566 C571.019032,247.256815 570.699699,247.147441 570.266103,247.147441 C569.914539,247.147441 569.605948,247.24119 569.340322,247.428691 C569.074696,247.616192 568.867666,247.862283 568.719228,248.166972 L568.719228,252.68455 L567.635244,252.68455 L567.635244,246.344706 L568.660634,246.344706 Z M576.799306,251.916972 C577.186027,251.916972 577.523914,251.799786 577.812978,251.565409 C578.102042,251.331033 578.262197,251.038067 578.293447,250.686503 L579.318837,250.686503 C579.299306,251.049786 579.174307,251.395486 578.943837,251.723613 C578.713368,252.051739 578.405753,252.313455 578.020986,252.508769 C577.636218,252.704082 577.228996,252.801738 576.799306,252.801738 C575.936021,252.801738 575.249504,252.513654 574.739736,251.93748 C574.229968,251.361305 573.975087,250.573227 573.975087,249.573222 L573.975087,249.391581 C573.975087,248.774391 574.088368,248.225568 574.314931,247.745097 C574.541495,247.264626 574.866687,246.891583 575.290517,246.625956 C575.714347,246.36033 576.215319,246.227519 576.793447,246.227519 C577.504388,246.227519 578.095202,246.440407 578.565908,246.866191 C579.036613,247.291974 579.287587,247.844703 579.318837,248.524394 L578.293447,248.524394 C578.262197,248.114235 578.106925,247.777325 577.827627,247.513652 C577.548328,247.249978 577.203605,247.118144 576.793447,247.118144 C576.242663,247.118144 575.815909,247.316384 575.513173,247.71287 C575.210438,248.109357 575.059072,248.682593 575.059072,249.432597 L575.059072,249.637675 C575.059072,250.368147 575.209461,250.930642 575.510244,251.325175 C575.811027,251.719708 576.24071,251.916972 576.799306,251.916972 L576.799306,251.916972 Z M583.168447,252.801738 C582.309068,252.801738 581.609856,252.519514 581.070791,251.955058 C580.531725,251.390602 580.262197,250.635727 580.262197,249.690409 L580.262197,249.491191 C580.262197,248.862281 580.382313,248.300763 580.622548,247.80662 C580.862784,247.312477 581.198718,246.925762 581.630361,246.646464 C582.062004,246.367166 582.529772,246.227519 583.033681,246.227519 C583.857904,246.227519 584.498523,246.499 584.955556,247.041972 C585.41259,247.584943 585.641103,248.362279 585.641103,249.374003 L585.641103,249.825175 L581.346181,249.825175 C581.361806,250.450178 581.544422,250.955056 581.894033,251.339823 C582.243644,251.724591 582.687975,251.916972 583.227041,251.916972 C583.609855,251.916972 583.934071,251.838848 584.199697,251.682597 C584.465323,251.526346 584.697743,251.319317 584.896962,251.061503 L585.559072,251.577128 C585.027819,252.393538 584.230952,252.801738 583.168447,252.801738 L583.168447,252.801738 Z M583.033681,247.118144 C582.596179,247.118144 582.228995,247.277322 581.932119,247.595683 C581.635242,247.914044 581.45165,248.360328 581.381337,248.93455 L584.557119,248.93455 L584.557119,248.852519 C584.525869,248.301735 584.377433,247.874981 584.111806,247.572245 C583.84618,247.269509 583.486809,247.118144 583.033681,247.118144 L583.033681,247.118144 Z" id="Instance" fill="#000000"></path>
            <g id="Group-58" transform="translate(447.000000, 165.000000)">
                <path d="M52,32 L52,48" id="Stroke-54" stroke="#616161"></path>
                <path d="M102,32 L2,32 C0.895,32 0,31.105 0,30 L0,2 C0,0.895 0.895,0 2,0 L102,0 C103.105,0 104,0.895 104,2 L104,30 C104,31.105 103.105,32 102,32" id="Fill-56" fill="#81D4FA"></path>
            </g>
            <path d="M483.271453,183.190409 L485.708953,176.1533 L486.939422,176.1533 L483.775359,184.68455 L482.779266,184.68455 L479.621063,176.1533 L480.845672,176.1533 L483.271453,183.190409 Z M490.030725,184.801738 C489.171346,184.801738 488.472134,184.519514 487.933069,183.955058 C487.394004,183.390602 487.124475,182.635727 487.124475,181.690409 L487.124475,181.491191 C487.124475,180.862281 487.244591,180.300763 487.484827,179.80662 C487.725062,179.312477 488.060996,178.925762 488.492639,178.646464 C488.924282,178.367166 489.392051,178.227519 489.895959,178.227519 C490.720182,178.227519 491.360801,178.499 491.817834,179.041972 C492.274868,179.584943 492.503381,180.362279 492.503381,181.374003 L492.503381,181.825175 L488.208459,181.825175 C488.224084,182.450178 488.4067,182.955056 488.756311,183.339823 C489.105922,183.724591 489.550254,183.916972 490.089319,183.916972 C490.472133,183.916972 490.796349,183.838848 491.061975,183.682597 C491.327601,183.526346 491.560021,183.319317 491.759241,183.061503 L492.42135,183.577128 C491.890097,184.393538 491.09323,184.801738 490.030725,184.801738 L490.030725,184.801738 Z M489.895959,179.118144 C489.458457,179.118144 489.091273,179.277322 488.794397,179.595683 C488.49752,179.914044 488.313928,180.360328 488.243616,180.93455 L491.419397,180.93455 L491.419397,180.852519 C491.388147,180.301735 491.239711,179.874981 490.974084,179.572245 C490.708458,179.269509 490.349087,179.118144 489.895959,179.118144 L489.895959,179.118144 Z M496.603684,179.317363 C496.43962,179.290019 496.261888,179.276347 496.07048,179.276347 C495.359539,179.276347 494.877122,179.579078 494.623215,180.18455 L494.623215,184.68455 L493.53923,184.68455 L493.53923,178.344706 L494.593918,178.344706 L494.611496,179.077128 C494.966967,178.510719 495.470868,178.227519 496.123215,178.227519 C496.334153,178.227519 496.494308,178.254862 496.603684,178.30955 L496.603684,179.317363 Z M501.073126,183.002909 C501.073126,182.709939 500.962776,182.482402 500.742072,182.320292 C500.521367,182.158182 500.136606,182.018535 499.587775,181.901347 C499.038944,181.784159 498.603401,181.643535 498.281134,181.479472 C497.958867,181.315409 497.720588,181.120098 497.56629,180.893534 C497.411993,180.666971 497.334845,180.397442 497.334845,180.084941 C497.334845,179.565407 497.55457,179.125958 497.994025,178.766581 C498.43348,178.407204 498.994998,178.227519 499.678595,178.227519 C500.397349,178.227519 500.980351,178.413064 501.427619,178.784159 C501.874886,179.155255 502.098517,179.62986 502.098517,180.207988 L501.008673,180.207988 C501.008673,179.911111 500.882698,179.655254 500.630744,179.440409 C500.378789,179.225565 500.06141,179.118144 499.678595,179.118144 C499.284062,179.118144 498.975471,179.20408 498.752814,179.375956 C498.530157,179.547832 498.41883,179.772439 498.41883,180.049784 C498.41883,180.311504 498.522344,180.508768 498.729376,180.641581 C498.936409,180.774394 499.310428,180.901346 499.851447,181.022441 C500.392465,181.143535 500.830937,181.288065 501.166876,181.456034 C501.502816,181.624004 501.751837,181.82615 501.913947,182.06248 C502.076057,182.298809 502.157111,182.586892 502.157111,182.926738 C502.157111,183.493147 501.930551,183.947244 501.477423,184.289042 C501.024296,184.630841 500.436411,184.801738 499.713751,184.801738 C499.205936,184.801738 498.756722,184.711895 498.366095,184.532206 C497.975468,184.352518 497.669807,184.101544 497.449103,183.779277 C497.228399,183.457009 497.118048,183.10838 497.118048,182.733378 L498.202033,182.733378 C498.221564,183.096661 498.36707,183.384744 498.638556,183.597636 C498.910042,183.810528 499.268437,183.916972 499.713751,183.916972 C500.12391,183.916972 500.453008,183.833965 500.701056,183.667948 C500.949104,183.501932 501.073126,183.280255 501.073126,183.002909 L501.073126,183.002909 Z M504.528897,184.68455 L503.444913,184.68455 L503.444913,178.344706 L504.528897,178.344706 L504.528897,184.68455 Z M503.357022,176.663066 C503.357022,176.487283 503.410733,176.338847 503.518155,176.217753 C503.625578,176.096659 503.784756,176.036113 503.995694,176.036113 C504.206633,176.036113 504.366787,176.096659 504.476163,176.217753 C504.585539,176.338847 504.640226,176.487283 504.640226,176.663066 C504.640226,176.838848 504.585539,176.985331 504.476163,177.102519 C504.366787,177.219707 504.206633,177.2783 503.995694,177.2783 C503.784756,177.2783 503.625578,177.219707 503.518155,177.102519 C503.410733,176.985331 503.357022,176.838848 503.357022,176.663066 L503.357022,176.663066 Z M505.758106,181.456034 C505.758106,180.834938 505.880175,180.276349 506.124317,179.780253 C506.368459,179.284157 506.708299,178.901348 507.143848,178.631816 C507.579397,178.362283 508.076462,178.227519 508.635059,178.227519 C509.498345,178.227519 510.19658,178.526344 510.729786,179.124003 C511.262991,179.721662 511.52959,180.516576 511.52959,181.508769 L511.52959,181.584941 C511.52959,182.202131 511.411427,182.755837 511.175098,183.246073 C510.938769,183.73631 510.600882,184.118142 510.161426,184.391581 C509.721971,184.66502 509.217093,184.801738 508.646778,184.801738 C507.787398,184.801738 507.091116,184.502912 506.557911,183.905253 C506.024705,183.307594 505.758106,182.516586 505.758106,181.532206 L505.758106,181.456034 Z M506.84795,181.584941 C506.84795,182.288069 507.011034,182.852517 507.337207,183.2783 C507.663381,183.704083 508.0999,183.916972 508.646778,183.916972 C509.197562,183.916972 509.635057,183.701154 509.959278,183.269511 C510.283498,182.837868 510.445606,182.233382 510.445606,181.456034 C510.445606,180.760718 510.280568,180.197247 509.950489,179.765605 C509.620409,179.333962 509.181937,179.118144 508.635059,179.118144 C508.0999,179.118144 507.668264,179.331032 507.340137,179.756816 C507.01201,180.182599 506.84795,180.791968 506.84795,181.584941 L506.84795,181.584941 Z M513.696299,178.344706 L513.731455,179.141581 C514.215832,178.532203 514.848639,178.227519 515.629893,178.227519 C516.969743,178.227519 517.645517,178.983371 517.657236,180.495097 L517.657236,184.68455 L516.573252,184.68455 L516.573252,180.489238 C516.569346,180.032204 516.464854,179.694317 516.259775,179.475566 C516.054696,179.256815 515.735363,179.147441 515.301768,179.147441 C514.950203,179.147441 514.641613,179.24119 514.375986,179.428691 C514.11036,179.616192 513.903331,179.862283 513.754893,180.166972 L513.754893,184.68455 L512.670908,184.68455 L512.670908,178.344706 L513.696299,178.344706 Z" id="Version" fill="#000000"></path>
            <path d="M677,197 L577,197 C575.895,197 575,196.105 575,195 L575,167 C575,165.895 575.895,165 577,165 L677,165 C678.105,165 679,165.895 679,167 L679,195 C679,196.105 678.105,197 677,197" id="Fill-59" fill="#81D4FA"></path>
            <path d="M611.271453,183.190409 L613.708953,176.1533 L614.939422,176.1533 L611.775359,184.68455 L610.779266,184.68455 L607.621063,176.1533 L608.845672,176.1533 L611.271453,183.190409 Z M618.030725,184.801738 C617.171346,184.801738 616.472134,184.519514 615.933069,183.955058 C615.394004,183.390602 615.124475,182.635727 615.124475,181.690409 L615.124475,181.491191 C615.124475,180.862281 615.244591,180.300763 615.484827,179.80662 C615.725062,179.312477 616.060996,178.925762 616.492639,178.646464 C616.924282,178.367166 617.392051,178.227519 617.895959,178.227519 C618.720182,178.227519 619.360801,178.499 619.817834,179.041972 C620.274868,179.584943 620.503381,180.362279 620.503381,181.374003 L620.503381,181.825175 L616.208459,181.825175 C616.224084,182.450178 616.4067,182.955056 616.756311,183.339823 C617.105922,183.724591 617.550254,183.916972 618.089319,183.916972 C618.472133,183.916972 618.796349,183.838848 619.061975,183.682597 C619.327601,183.526346 619.560021,183.319317 619.759241,183.061503 L620.42135,183.577128 C619.890097,184.393538 619.09323,184.801738 618.030725,184.801738 L618.030725,184.801738 Z M617.895959,179.118144 C617.458457,179.118144 617.091273,179.277322 616.794397,179.595683 C616.49752,179.914044 616.313928,180.360328 616.243616,180.93455 L619.419397,180.93455 L619.419397,180.852519 C619.388147,180.301735 619.239711,179.874981 618.974084,179.572245 C618.708458,179.269509 618.349087,179.118144 617.895959,179.118144 L617.895959,179.118144 Z M624.603684,179.317363 C624.43962,179.290019 624.261888,179.276347 624.07048,179.276347 C623.359539,179.276347 622.877122,179.579078 622.623215,180.18455 L622.623215,184.68455 L621.53923,184.68455 L621.53923,178.344706 L622.593918,178.344706 L622.611496,179.077128 C622.966967,178.510719 623.470868,178.227519 624.123215,178.227519 C624.334153,178.227519 624.494308,178.254862 624.603684,178.30955 L624.603684,179.317363 Z M629.073126,183.002909 C629.073126,182.709939 628.962776,182.482402 628.742072,182.320292 C628.521367,182.158182 628.136606,182.018535 627.587775,181.901347 C627.038944,181.784159 626.603401,181.643535 626.281134,181.479472 C625.958867,181.315409 625.720588,181.120098 625.56629,180.893534 C625.411993,180.666971 625.334845,180.397442 625.334845,180.084941 C625.334845,179.565407 625.55457,179.125958 625.994025,178.766581 C626.43348,178.407204 626.994998,178.227519 627.678595,178.227519 C628.397349,178.227519 628.980351,178.413064 629.427619,178.784159 C629.874886,179.155255 630.098517,179.62986 630.098517,180.207988 L629.008673,180.207988 C629.008673,179.911111 628.882698,179.655254 628.630744,179.440409 C628.378789,179.225565 628.06141,179.118144 627.678595,179.118144 C627.284062,179.118144 626.975471,179.20408 626.752814,179.375956 C626.530157,179.547832 626.41883,179.772439 626.41883,180.049784 C626.41883,180.311504 626.522344,180.508768 626.729376,180.641581 C626.936409,180.774394 627.310428,180.901346 627.851447,181.022441 C628.392465,181.143535 628.830937,181.288065 629.166876,181.456034 C629.502816,181.624004 629.751837,181.82615 629.913947,182.06248 C630.076057,182.298809 630.157111,182.586892 630.157111,182.926738 C630.157111,183.493147 629.930551,183.947244 629.477423,184.289042 C629.024296,184.630841 628.436411,184.801738 627.713751,184.801738 C627.205936,184.801738 626.756722,184.711895 626.366095,184.532206 C625.975468,184.352518 625.669807,184.101544 625.449103,183.779277 C625.228399,183.457009 625.118048,183.10838 625.118048,182.733378 L626.202033,182.733378 C626.221564,183.096661 626.36707,183.384744 626.638556,183.597636 C626.910042,183.810528 627.268437,183.916972 627.713751,183.916972 C628.12391,183.916972 628.453008,183.833965 628.701056,183.667948 C628.949104,183.501932 629.073126,183.280255 629.073126,183.002909 L629.073126,183.002909 Z M632.528897,184.68455 L631.444913,184.68455 L631.444913,178.344706 L632.528897,178.344706 L632.528897,184.68455 Z M631.357022,176.663066 C631.357022,176.487283 631.410733,176.338847 631.518155,176.217753 C631.625578,176.096659 631.784756,176.036113 631.995694,176.036113 C632.206633,176.036113 632.366787,176.096659 632.476163,176.217753 C632.585539,176.338847 632.640226,176.487283 632.640226,176.663066 C632.640226,176.838848 632.585539,176.985331 632.476163,177.102519 C632.366787,177.219707 632.206633,177.2783 631.995694,177.2783 C631.784756,177.2783 631.625578,177.219707 631.518155,177.102519 C631.410733,176.985331 631.357022,176.838848 631.357022,176.663066 L631.357022,176.663066 Z M633.758106,181.456034 C633.758106,180.834938 633.880175,180.276349 634.124317,179.780253 C634.368459,179.284157 634.708299,178.901348 635.143848,178.631816 C635.579397,178.362283 636.076462,178.227519 636.635059,178.227519 C637.498345,178.227519 638.19658,178.526344 638.729786,179.124003 C639.262991,179.721662 639.52959,180.516576 639.52959,181.508769 L639.52959,181.584941 C639.52959,182.202131 639.411427,182.755837 639.175098,183.246073 C638.938769,183.73631 638.600882,184.118142 638.161426,184.391581 C637.721971,184.66502 637.217093,184.801738 636.646778,184.801738 C635.787398,184.801738 635.091116,184.502912 634.557911,183.905253 C634.024705,183.307594 633.758106,182.516586 633.758106,181.532206 L633.758106,181.456034 Z M634.84795,181.584941 C634.84795,182.288069 635.011034,182.852517 635.337207,183.2783 C635.663381,183.704083 636.0999,183.916972 636.646778,183.916972 C637.197562,183.916972 637.635057,183.701154 637.959278,183.269511 C638.283498,182.837868 638.445606,182.233382 638.445606,181.456034 C638.445606,180.760718 638.280568,180.197247 637.950489,179.765605 C637.620409,179.333962 637.181937,179.118144 636.635059,179.118144 C636.0999,179.118144 635.668264,179.331032 635.340137,179.756816 C635.01201,180.182599 634.84795,180.791968 634.84795,181.584941 L634.84795,181.584941 Z M641.696299,178.344706 L641.731455,179.141581 C642.215832,178.532203 642.848639,178.227519 643.629893,178.227519 C644.969743,178.227519 645.645517,178.983371 645.657236,180.495097 L645.657236,184.68455 L644.573252,184.68455 L644.573252,180.489238 C644.569346,180.032204 644.464854,179.694317 644.259775,179.475566 C644.054696,179.256815 643.735363,179.147441 643.301768,179.147441 C642.950203,179.147441 642.641613,179.24119 642.375986,179.428691 C642.11036,179.616192 641.903331,179.862283 641.754893,180.166972 L641.754893,184.68455 L640.670908,184.68455 L640.670908,178.344706 L641.696299,178.344706 Z" id="Version" fill="#000000"></path>
            <g id="Group-67" transform="translate(228.000000, 79.000000)">
                <polyline id="Stroke-61" stroke="#616161" points="336 15.1324 336 0.000400000001 4 0.000400000001 4 15.1324"></polyline>
                <polygon id="Fill-63" fill="#616161" points="339.2719 12.4816 338.6859 11.9356 336.0009 14.8256 333.3149 11.9356 332.7289 12.4816 336.0009 15.9996"></polygon>
                <polygon id="Fill-65" fill="#616161" points="0.7281 12.4816 1.3141 11.9356 3.9991 14.8256 6.6851 11.9356 7.2711 12.4816 3.9991 15.9996"></polygon>
            </g>
            <g id="Group" transform="translate(331.000000, 31.000000)">
                <use id="Rectangle-1759" stroke="#E0E0E0" mask="url(#mask-4)" stroke-width="2" fill="#03A9F4" xlink:href="#path-3"></use>
                <path d="M39.8027344,18.0136719 L36.4980469,18.0136719 L35.8066406,20 L34.265625,20 L37.4882812,11.46875 L38.8183594,11.46875 L42.046875,20 L40.5,20 L39.8027344,18.0136719 Z M36.9140625,16.8183594 L39.3867187,16.8183594 L38.1503906,13.2792969 L36.9140625,16.8183594 Z M48.1464844,16.8945312 C48.1464844,17.8750049 47.9238304,18.6572236 47.4785156,19.2412109 C47.0332009,19.8251982 46.4355506,20.1171875 45.6855469,20.1171875 C44.9902309,20.1171875 44.4335958,19.8886742 44.015625,19.4316406 L44.015625,22.4375 L42.5917969,22.4375 L42.5917969,13.6601562 L43.9042969,13.6601562 L43.9628906,14.3046875 C44.3808615,13.7968725 44.9492152,13.5429688 45.6679687,13.5429688 C46.4414101,13.5429688 47.0478494,13.8310518 47.4873047,14.4072266 C47.92676,14.9834013 48.1464844,15.783198 48.1464844,16.8066406 L48.1464844,16.8945312 Z M46.7285156,16.7714844 C46.7285156,16.1386687 46.6025403,15.6367206 46.3505859,15.265625 C46.0986316,14.8945294 45.7382836,14.7089844 45.2695312,14.7089844 C44.6874971,14.7089844 44.2695325,14.9492163 44.015625,15.4296875 L44.015625,18.2421875 C44.2734388,18.7343775 44.6953096,18.9804688 45.28125,18.9804688 C45.7343773,18.9804688 46.0888659,18.7978534 46.3447266,18.4326172 C46.6005872,18.067381 46.7285156,17.5136756 46.7285156,16.7714844 L46.7285156,16.7714844 Z M54.9023437,16.8945312 C54.9023437,17.8750049 54.6796897,18.6572236 54.234375,19.2412109 C53.7890603,19.8251982 53.19141,20.1171875 52.4414062,20.1171875 C51.7460903,20.1171875 51.1894552,19.8886742 50.7714844,19.4316406 L50.7714844,22.4375 L49.3476562,22.4375 L49.3476562,13.6601562 L50.6601562,13.6601562 L50.71875,14.3046875 C51.1367208,13.7968725 51.7050745,13.5429688 52.4238281,13.5429688 C53.1972695,13.5429688 53.8037087,13.8310518 54.2431641,14.4072266 C54.6826194,14.9834013 54.9023437,15.783198 54.9023437,16.8066406 L54.9023437,16.8945312 Z M53.484375,16.7714844 C53.484375,16.1386687 53.3583997,15.6367206 53.1064453,15.265625 C52.8544909,14.8945294 52.494143,14.7089844 52.0253906,14.7089844 C51.4433565,14.7089844 51.0253919,14.9492163 50.7714844,15.4296875 L50.7714844,18.2421875 C51.0292982,18.7343775 51.4511689,18.9804688 52.0371094,18.9804688 C52.4902366,18.9804688 52.8447253,18.7978534 53.1005859,18.4326172 C53.3564466,18.067381 53.484375,17.5136756 53.484375,16.7714844 L53.484375,16.7714844 Z M57.6210937,20 L56.1972656,20 L56.1972656,11 L57.6210937,11 L57.6210937,20 Z M60.6855469,20 L59.2617187,20 L59.2617187,13.6601562 L60.6855469,13.6601562 L60.6855469,20 Z M59.1738281,12.0136719 C59.1738281,11.7949208 59.2431634,11.613282 59.3818359,11.46875 C59.5205085,11.324218 59.7187487,11.2519531 59.9765625,11.2519531 C60.2343763,11.2519531 60.433593,11.324218 60.5742187,11.46875 C60.7148445,11.613282 60.7851562,11.7949208 60.7851562,12.0136719 C60.7851562,12.2285167 60.7148445,12.4072258 60.5742187,12.5498047 C60.433593,12.6923835 60.2343763,12.7636719 59.9765625,12.7636719 C59.7187487,12.7636719 59.5205085,12.6923835 59.3818359,12.5498047 C59.2431634,12.4072258 59.1738281,12.2285167 59.1738281,12.0136719 L59.1738281,12.0136719 Z M64.8398437,18.9804688 C65.1953143,18.9804688 65.4902332,18.8769542 65.7246094,18.6699219 C65.9589855,18.4628896 66.0839843,18.2070328 66.0996094,17.9023438 L67.4414062,17.9023438 C67.4257812,18.296877 67.3027355,18.6650374 67.0722656,19.0068359 C66.8417957,19.3486345 66.5292988,19.6191396 66.1347656,19.8183594 C65.7402324,20.0175791 65.3144554,20.1171875 64.8574219,20.1171875 C63.9706987,20.1171875 63.2675807,19.830081 62.7480469,19.2558594 C62.228513,18.6816378 61.96875,17.8886769 61.96875,16.8769531 L61.96875,16.7304688 C61.96875,15.7656202 62.2265599,14.993167 62.7421875,14.4130859 C63.2578151,13.8330049 63.960933,13.5429688 64.8515625,13.5429688 C65.6054725,13.5429688 66.2197242,13.7626931 66.6943359,14.2021484 C67.1689477,14.6416038 67.4179686,15.2187464 67.4414062,15.9335938 L66.0996094,15.9335938 C66.0839843,15.5703107 65.9599621,15.2714855 65.7275391,15.0371094 C65.495116,14.8027332 65.1992205,14.6855469 64.8398437,14.6855469 C64.3789039,14.6855469 64.0234387,14.8525374 63.7734375,15.1865234 C63.5234362,15.5205095 63.3964844,16.0273404 63.3925781,16.7070312 L63.3925781,16.9355469 C63.3925781,17.6230503 63.5166003,18.1357405 63.7646484,18.4736328 C64.0126966,18.8115251 64.3710914,18.9804688 64.8398437,18.9804688 L64.8398437,18.9804688 Z M72.3046875,20 C72.2421872,19.8789056 72.1875002,19.681642 72.140625,19.4082031 C71.6874977,19.8808617 71.1328158,20.1171875 70.4765625,20.1171875 C69.8398406,20.1171875 69.3203145,19.9355487 68.9179687,19.5722656 C68.515623,19.2089826 68.3144531,18.7597683 68.3144531,18.2246094 C68.3144531,17.5488247 68.5654272,17.0302752 69.0673828,16.6689453 C69.5693384,16.3076154 70.2871047,16.1269531 71.2207031,16.1269531 L72.09375,16.1269531 L72.09375,15.7109375 C72.09375,15.3828109 72.001954,15.1201182 71.8183594,14.9228516 C71.6347647,14.725585 71.3554706,14.6269531 70.9804687,14.6269531 C70.6562484,14.6269531 70.390626,14.708007 70.1835937,14.8701172 C69.9765615,15.0322274 69.8730469,15.23828 69.8730469,15.4882812 L68.4492187,15.4882812 C68.4492187,15.1406233 68.564452,14.8154312 68.7949219,14.5126953 C69.0253918,14.2099594 69.3388652,13.9726571 69.7353516,13.8007812 C70.1318379,13.6289054 70.5742163,13.5429688 71.0625,13.5429688 C71.8046912,13.5429688 72.3964822,13.7294903 72.8378906,14.1025391 C73.2792991,14.4755878 73.5058593,14.9999966 73.5175781,15.6757812 L73.5175781,18.5351562 C73.5175781,19.1054716 73.5976554,19.5605452 73.7578125,19.9003906 L73.7578125,20 L72.3046875,20 Z M70.7402344,18.9746094 C71.0214858,18.9746094 71.2861316,18.9062507 71.5341797,18.7695312 C71.7822278,18.6328118 71.9687494,18.4492199 72.09375,18.21875 L72.09375,17.0234375 L71.3261719,17.0234375 C70.7988255,17.0234375 70.4023451,17.1152335 70.1367187,17.2988281 C69.8710924,17.4824228 69.7382812,17.7421858 69.7382812,18.078125 C69.7382812,18.3515639 69.8291007,18.5693351 70.0107422,18.7314453 C70.1923837,18.8935555 70.4355454,18.9746094 70.7402344,18.9746094 L70.7402344,18.9746094 Z M76.7929687,12.1191406 L76.7929687,13.6601562 L77.9121094,13.6601562 L77.9121094,14.7148438 L76.7929687,14.7148438 L76.7929687,18.2539062 C76.7929687,18.496095 76.8408198,18.6708979 76.9365234,18.7783203 C77.032227,18.8857427 77.2031238,18.9394531 77.4492187,18.9394531 C77.6132821,18.9394531 77.779296,18.9199221 77.9472656,18.8808594 L77.9472656,19.9824219 C77.6230453,20.0722661 77.3105484,20.1171875 77.0097656,20.1171875 C75.9160102,20.1171875 75.3691406,19.5136779 75.3691406,18.3066406 L75.3691406,14.7148438 L74.3261719,14.7148438 L74.3261719,13.6601562 L75.3691406,13.6601562 L75.3691406,12.1191406 L76.7929687,12.1191406 Z M80.5136719,20 L79.0898437,20 L79.0898437,13.6601562 L80.5136719,13.6601562 L80.5136719,20 Z M79.0019531,12.0136719 C79.0019531,11.7949208 79.0712884,11.613282 79.2099609,11.46875 C79.3486335,11.324218 79.5468737,11.2519531 79.8046875,11.2519531 C80.0625013,11.2519531 80.261718,11.324218 80.4023437,11.46875 C80.5429695,11.613282 80.6132812,11.7949208 80.6132812,12.0136719 C80.6132812,12.2285167 80.5429695,12.4072258 80.4023437,12.5498047 C80.261718,12.6923835 80.0625013,12.7636719 79.8046875,12.7636719 C79.5468737,12.7636719 79.3486335,12.6923835 79.2099609,12.5498047 C79.0712884,12.4072258 79.0019531,12.2285167 79.0019531,12.0136719 L79.0019531,12.0136719 Z M81.796875,16.7714844 C81.796875,16.1503875 81.9199206,15.5908228 82.1660156,15.0927734 C82.4121106,14.5947241 82.7578103,14.2119154 83.203125,13.9443359 C83.6484397,13.6767565 84.1601534,13.5429688 84.7382812,13.5429688 C85.5937543,13.5429688 86.2880833,13.8183566 86.8212891,14.3691406 C87.3544949,14.9199246 87.6425779,15.6503861 87.6855469,16.5605469 L87.6914062,16.8945312 C87.6914062,17.5195344 87.5712903,18.0781225 87.3310547,18.5703125 C87.0908191,19.0625025 86.7470725,19.443358 86.2998047,19.7128906 C85.8525368,19.9824232 85.3359404,20.1171875 84.75,20.1171875 C83.8554643,20.1171875 83.1396511,19.8193389 82.6025391,19.2236328 C82.065427,18.6279267 81.796875,17.8339893 81.796875,16.8417969 L81.796875,16.7714844 Z M83.2207031,16.8945312 C83.2207031,17.5468783 83.3554674,18.0576153 83.625,18.4267578 C83.8945326,18.7959003 84.2695288,18.9804688 84.75,18.9804688 C85.2304712,18.9804688 85.6044908,18.7929706 85.8720703,18.4179688 C86.1396498,18.0429669 86.2734375,17.4941442 86.2734375,16.7714844 C86.2734375,16.1308562 86.1357436,15.6230487 85.8603516,15.2480469 C85.5849596,14.873045 85.2109399,14.6855469 84.7382812,14.6855469 C84.2734352,14.6855469 83.9042982,14.8701153 83.6308594,15.2392578 C83.3574205,15.6084003 83.2207031,16.1601526 83.2207031,16.8945312 L83.2207031,16.8945312 Z M90.2167969,13.6601562 L90.2578125,14.3925781 C90.7265648,13.826169 91.3417931,13.5429688 92.1035156,13.5429688 C93.4238347,13.5429688 94.095703,14.2988206 94.1191406,15.8105469 L94.1191406,20 L92.6953125,20 L92.6953125,15.8925781 C92.6953125,15.4902324 92.6083993,15.1923838 92.4345703,14.9990234 C92.2607413,14.8056631 91.9765645,14.7089844 91.5820312,14.7089844 C91.0078096,14.7089844 90.5800795,14.9687474 90.2988281,15.4882812 L90.2988281,20 L88.875,20 L88.875,13.6601562 L90.2167969,13.6601562 Z" id="Application" fill="#FFFFFF"></path>
            </g>
        </g>
    </g>
</svg>